<svg preserveAspectRatio="none" width="100%" height="100%" overflow="visible" style="display: block;" viewBox="0 0 183.514 82.9719" fill="none" xmlns="http://www.w3.org/2000/svg">
<path id="Vector" fill-rule="evenodd" clip-rule="evenodd" d="M0.0119431 31.4478C0.0119431 28.8302 2.18612 26.3447 4.86202 25.8884L30.3309 21.5057C33.0068 21.0494 35.1809 22.7905 35.1809 25.3961V43.6112C35.1809 46.2288 37.3551 47.9699 40.031 47.5016L53.7331 45.1482C56.409 44.6919 58.5831 42.1944 58.5831 39.5888V21.3736C58.5831 18.756 60.7573 16.2705 63.4332 15.8142L155.011 0.0726269C157.687 -0.383652 159.861 1.35741 159.861 3.963V25.4802C159.861 28.0978 162.035 29.8388 164.711 29.3705L178.664 26.9691C181.34 26.5128 183.514 28.2538 183.514 30.8594V54.0336C183.514 56.6512 181.34 59.1367 178.664 59.593L120.559 69.5831C117.883 70.0394 115.709 68.2983 115.709 65.6927V43.6953C115.709 41.0777 113.535 39.3366 110.859 39.8049L68.6416 47.0573C65.9657 47.5136 63.7916 50.0112 63.7916 52.6167V72.9572C63.7916 75.5748 61.6174 78.0603 58.9415 78.5166L33.4727 82.8993C30.7968 83.3555 28.6226 81.6145 28.6226 79.0089V60.7937C28.6226 58.1761 26.4484 56.4351 23.7725 56.9034L4.85007 60.1573C2.17417 60.6136 0 58.8726 0 56.267V31.4358L0.0119431 31.4478ZM124.417 24.8318C124.549 24.1714 124.609 23.0186 124.609 21.3736C124.609 19.7286 124.549 18.5999 124.417 17.9756C124.226 16.9549 123.772 16.1625 123.068 15.5861C121.933 14.6736 120.535 14.3614 118.875 14.6495C117.202 14.9377 115.792 15.7302 114.658 17.039C113.965 17.8435 113.511 18.7921 113.308 19.8847C113.188 20.5331 113.129 21.6858 113.129 23.3428C113.129 24.9999 113.188 26.1406 113.308 26.7409C113.511 27.7736 113.965 28.566 114.658 29.1304C115.792 30.0429 117.202 30.3551 118.875 30.067C120.535 29.7788 121.933 28.9863 123.068 27.6895C123.784 26.873 124.226 25.9244 124.417 24.8438V24.8318ZM121.538 19.6926C121.562 20.0048 121.586 20.7373 121.586 21.902C121.586 24.0753 121.395 25.4561 121.001 26.0445C120.487 26.813 119.782 27.2692 118.886 27.4253C118.074 27.5694 117.417 27.4133 116.927 26.9571C116.545 26.5968 116.318 25.9604 116.234 25.0359C116.211 24.7837 116.187 24.0513 116.187 22.8265C116.187 21.6018 116.199 20.8693 116.234 20.6052C116.318 19.6566 116.557 18.9362 116.927 18.4439C117.417 17.8195 118.074 17.4352 118.886 17.3032C119.699 17.1711 120.332 17.3272 120.834 17.7835C121.228 18.1437 121.467 18.7801 121.55 19.7046L121.538 19.6926ZM78.7241 35.5063C79.8112 34.3296 80.3607 32.9487 80.3607 31.3758V21.4097L77.3503 21.926V31.784C77.3503 32.6485 77.0994 33.369 76.6096 33.9573C76.1318 34.5337 75.4748 34.8939 74.6505 35.038C73.8262 35.1821 73.1692 35.038 72.6913 34.6297C72.2135 34.2215 71.9746 33.5731 71.9746 32.7086V22.8506L68.9403 23.3669V33.333C68.9403 34.9059 69.4898 36.0946 70.5769 36.8991C71.664 37.6916 73.0258 37.9438 74.6624 37.6676C76.299 37.3914 77.6489 36.659 78.748 35.4943L78.7241 35.5063ZM92.9398 34.4016L95.6515 33.9333V18.7801L92.6173 19.2964V28.578L86.4651 20.353L83.7533 20.8213V35.9746L86.7876 35.4583V26.1526L92.9398 34.4016ZM110.56 23.7271C110.56 25.4201 110.512 26.5248 110.429 27.0651C110.238 28.2659 109.76 29.2985 108.983 30.187C107.992 31.3277 106.63 32.0362 104.874 32.3363L99.2592 33.2969V18.1437L104.874 17.1831C106.618 16.8829 107.992 17.1351 108.983 17.9275C109.76 18.5519 110.238 19.4044 110.429 20.4851C110.512 20.9774 110.56 22.0581 110.56 23.7151V23.7271ZM107.526 24.2434C107.526 23.0187 107.49 22.1661 107.418 21.6858C107.335 21.1215 107.144 20.7012 106.869 20.4131C106.343 19.8847 105.591 19.6926 104.599 19.8727L102.305 20.269V30.151L104.599 29.7548C105.591 29.5867 106.343 29.1424 106.869 28.422C107.144 28.0497 107.323 27.5454 107.418 26.897C107.49 26.3567 107.526 25.4681 107.526 24.2434ZM139.613 26.3687L136.901 26.837L130.749 18.5879V27.8936L127.715 28.4099V13.2567L130.426 12.7884L136.578 21.0134V11.7318L139.613 11.2154V26.3687ZM143.232 25.7443L153.47 23.9792V21.3376L146.267 22.5744V18.8881L152.407 17.8315V15.1899L146.267 16.2465V12.6923L153.47 11.4556V8.81397L143.232 10.579V25.7323V25.7443ZM174.591 50.1552C175.678 49.1466 176.227 47.9219 176.227 46.493C176.227 45.0881 175.821 44.0915 175.021 43.4912C174.364 43.0109 173.372 42.7827 172.046 42.8308L170.206 42.8908C169.597 42.9148 169.119 42.7947 168.785 42.5546C168.462 42.3144 168.307 41.9662 168.307 41.534C168.307 41.1017 168.51 40.4893 168.916 40.0691C169.334 39.6248 169.932 39.3366 170.708 39.2045C172.094 38.9644 173.157 39.1325 173.898 39.6968L175.821 37.5115C174.567 36.5509 172.894 36.2507 170.804 36.611C169.143 36.8991 167.829 37.5475 166.85 38.5682C165.87 39.5768 165.392 40.7655 165.392 42.1343C165.392 44.5838 166.766 45.7606 169.514 45.6645L171.389 45.5925C172.01 45.5684 172.476 45.6765 172.787 45.9046C173.097 46.1208 173.241 46.517 173.241 47.0814C173.241 48.3301 172.321 49.1106 170.493 49.4228C168.868 49.699 167.614 49.4948 166.742 48.7864L164.783 51.0438C166.133 52.1485 168.032 52.4847 170.457 52.0644C172.13 51.7762 173.504 51.1398 174.579 50.1432L174.591 50.1552ZM125.325 59.7131L135.408 57.984V55.3424L128.36 56.5551V44.0435L125.325 44.5598V59.7131ZM146.733 56.0388L149.898 55.4985L144.224 41.3178L141.847 41.7261L136.196 57.8519L139.362 57.3116L140.306 54.4659L145.825 53.5173L146.745 56.0388H146.733ZM143.113 45.9767L145.012 51.1638L141.142 51.8243L143.101 45.9767H143.113ZM163.087 48.8704C163.087 50.2513 162.645 51.392 161.773 52.3045C160.901 53.2171 159.754 53.8055 158.32 54.0456L151.81 55.1623V40.009L158.057 38.9404C159.563 38.6882 160.733 38.8683 161.57 39.4807C162.43 40.1051 162.86 41.0657 162.86 42.3625C162.86 43.6593 162.645 43.8514 162.203 44.5358C161.844 45.0761 161.414 45.5084 160.936 45.8206C162.358 46.2288 163.075 47.2375 163.075 48.8584L163.087 48.8704ZM159.837 43.0229C159.837 42.4946 159.658 42.1103 159.312 41.8582C158.965 41.594 158.464 41.51 157.83 41.618L154.856 42.1343V45.6285L157.83 45.1122C158.475 45.0041 158.965 44.7639 159.312 44.3917C159.658 44.0075 159.837 43.5512 159.837 43.0229ZM160.052 49.2427C160.052 48.7023 159.873 48.2941 159.527 48.0179C159.18 47.7177 158.679 47.6337 158.022 47.7418L154.856 48.2821V52.0044L158.022 51.464C158.679 51.356 159.18 51.0918 159.527 50.6716C159.873 50.2513 160.052 49.783 160.052 49.2427Z" fill="var(--fill-0, #151D1F)"/>
</svg>
