<svg preserveAspectRatio="none" width="100%" height="100%" overflow="visible" style="display: block;" viewBox="0 0 264.373 156.747" fill="none" xmlns="http://www.w3.org/2000/svg">
<g id="Group 9693">
<path id="Path 3214" d="M115.711 145.794L106.951 128.278L108.688 122.819L110.281 104.203L110.571 86.6748L110.387 80.939" stroke="var(--stroke-0, #151D1F)" stroke-width="1.10438" stroke-linecap="round" stroke-linejoin="round"/>
<path id="Path 3215" d="M127.372 80.939L127.181 96.9775L127.07 121.813L126.789 145.019L125.857 155.545" stroke="var(--stroke-0, #151D1F)" stroke-width="1.10438" stroke-linecap="round" stroke-linejoin="round"/>
<path id="Path 3216" d="M135.901 80.939L135.709 96.6062L135.805 122.095L136.163 145.063L137.119 156.195" stroke="var(--stroke-0, #151D1F)" stroke-width="1.10438" stroke-linecap="round" stroke-linejoin="round"/>
<path id="Path 3217" d="M112.297 56.0997L112.75 41.4927L112.69 27.3615L112.342 18.0044L112.162 13.0274L112.204 10.0062L112.368 7.47694L112.588 5.09045L112.831 2.79425L113.086 0.575757" stroke="var(--stroke-0, #151D1F)" stroke-width="1.10438" stroke-linecap="round" stroke-linejoin="round"/>
<path id="Line 368" d="M118.883 93.2991L118.826 80.939" stroke="var(--stroke-0, #151D1F)" stroke-width="1.10438" stroke-linecap="round" stroke-linejoin="round"/>
<path id="Path 3218" d="M120.9 56.3711L121.023 44.3957L120.789 28.9373L120.441 18.5713L120.271 13.1411L120.287 10.0266L120.393 7.48243L120.534 5.09257L120.687 2.79457L120.845 0.575757" stroke="var(--stroke-0, #151D1F)" stroke-width="1.10438" stroke-linecap="round" stroke-linejoin="round"/>
<path id="Line 369" d="M144.509 80.939L144.318 92.7249" stroke="var(--stroke-0, #151D1F)" stroke-width="1.10438" stroke-linecap="round" stroke-linejoin="round"/>
<path id="Path 3219" d="M192.943 49.6568L193.316 49.5268L194.239 49.206L197.572 48.0468L203.783 45.8867L214.467 44.6612L224.771 44.4586L234.805 44.4683L244.683 44.4824" stroke="var(--stroke-0, #151D1F)" stroke-width="1.10438" stroke-linecap="round" stroke-linejoin="round"/>
<path id="Path 3220" d="M263.82 80.9392H252.375H240.929H229.482H218.036H206.589H195.143H183.696H173.629H173.036H172.25H169.193H163.339H160.803H158.94H153.573H149.357H144.51H137.91H135.899H127.368H126.464H118.825H115.017H110.393H104.915H103.571H101.719H94.387H92.1623H92.1241H90.6234H80.6779H69.2311H57.7849H46.3381H34.8917H23.4455H11.9987H0.552301" stroke="var(--stroke-0, #151D1F)" stroke-width="1.10438" stroke-linecap="round" stroke-linejoin="round"/>
<path id="Path 3221" d="M187.771 37.6336L196.992 30.8977L206.755 27.1702L216.397 25.9201L225.685 25.6642L234.726 25.6265" stroke="var(--stroke-0, #151D1F)" stroke-width="1.10438" stroke-linecap="round" stroke-linejoin="round"/>
<path id="Path 3222" d="M3.02105 76.287H14.2546H25.4883H36.722H47.9554H59.1891H70.4228H81.6566L92.8903 76.2867H104.124H115.357H126.591H137.824H149.058H160.291L171.525 76.287H182.758H193.992H205.226H216.46H227.693H238.927H250.16H261.393" stroke="var(--stroke-0, #151D1F)" stroke-width="1.10438" stroke-linecap="round" stroke-linejoin="round"/>
<path id="Path 3223" d="M5.38824 71.8078H16.4167H27.4454H38.4741L49.5027 71.8075L60.5322 71.8071L71.562 71.8064L82.5917 71.8054L93.6212 71.8043L104.649 71.8033L115.676 71.8023H126.702L137.729 71.8026L148.756 71.8033L159.783 71.8043L170.812 71.8054L181.842 71.8064L192.871 71.8071L203.9 71.8075L214.929 71.8078H225.958H236.987H248.016H259.044" stroke="var(--stroke-0, #151D1F)" stroke-width="1.10438" stroke-linecap="round" stroke-linejoin="round"/>
<path id="Path 3224" d="M129.245 56.4768L129.108 45.4809L128.733 29.4715L128.442 18.7376L128.341 13.1671L128.357 10.0297L128.414 7.48317L128.48 5.09257L128.544 2.79457L128.605 0.575757" stroke="var(--stroke-0, #151D1F)" stroke-width="1.10438" stroke-linecap="round" stroke-linejoin="round"/>
<path id="Path 3225" d="M7.68511 67.4899H18.5157L29.3471 67.4896L40.1792 67.4892L51.0125 67.4882L61.8486 67.4858L72.6872 67.4813L83.5262 67.4755L94.3619 67.4678L105.191 67.4609L116.011 67.4564L126.827 67.4547L137.643 67.4564L148.463 67.4609L159.289 67.4671L170.122 67.4737L180.957 67.4796L191.794 67.4837L202.631 67.4869L213.465 67.4886L224.299 67.4892L235.13 67.4896L245.962 67.4899H256.793" stroke="var(--stroke-0, #151D1F)" stroke-width="1.10438" stroke-linecap="round" stroke-linejoin="round"/>
<path id="Path 3226" d="M9.89605 63.3162L20.537 63.3158L31.1788 63.3151L41.8248 63.313L52.4784 63.3075L63.1424 63.2972L73.8154 63.2791L84.4897 63.2539L95.1514 63.2245L105.785 63.1958L116.383 63.1765L126.955 63.1695L137.529 63.1757L148.12 63.1938L158.737 63.2177L169.38 63.2438L180.039 63.2674L190.707 63.2867L201.373 63.2999L212.033 63.3082L222.685 63.3127L233.331 63.3148L243.974 63.3154L254.615 63.3158" stroke="var(--stroke-0, #151D1F)" stroke-width="1.10438" stroke-linecap="round" stroke-linejoin="round"/>
<path id="Path 3227" d="M12.0289 59.2956L22.4867 59.295L32.9509 59.2922L43.4292 59.2846L53.9325 59.2666L64.4672 59.2334L75.0279 59.1819L85.5883 59.1183L96.1083 59.0533L106.547 58.999L116.877 58.9617L127.118 58.9469L137.352 58.9575L147.642 58.9887L158.014 59.0332L168.469 59.0872L178.981 59.1439L189.524 59.1965L200.071 59.2389L210.6 59.2673L221.102 59.2828L231.582 59.2904L242.049 59.2939L252.509 59.295" stroke="var(--stroke-0, #151D1F)" stroke-width="1.10438" stroke-linecap="round" stroke-linejoin="round"/>
<path id="Line 370" d="M86.9898 55.2789L97.3534 55.5185" stroke="var(--stroke-0, #151D1F)" stroke-width="1.10438" stroke-linecap="round" stroke-linejoin="round"/>
<path id="Path 3228" d="M94.3458 54.8403L95.429 44.5608L86.8648 36.7881L87.2673 27.3955L87.16 20.2413L87.1379 15.6529L87.3493 12.5124L87.7205 9.88677L88.1858 7.43112L88.7027 5.06881L89.2421 2.78295L89.7948 0.567945" stroke="var(--stroke-0, #151D1F)" stroke-width="1.10438" stroke-linecap="round" stroke-linejoin="round"/>
<path id="Path 3229" d="M14.0914 55.4062L24.3767 55.4038L34.6808 55.3958L45.0254 55.3744L55.4349 55.3297L65.9223 55.2637L76.4638 55.2184L86.9886 55.2759L88.949 53.6226L91.7943 54.2636L94.3498 54.8392L97.352 55.5155L97.4031 55.5164L103.51 55.753L107.621 55.912L108.495 55.9469L112.3 56.0983L117.589 56.3085L120.904 56.3708L127.336 56.4914L129.249 56.4765L137.022 56.417L137.156 56.4132L144.909 56.2027L146.857 56.1495L152.768 55.9358L154.16 55.8857L156.901 55.7864L161.339 55.6551L166.658 55.4974L167.142 55.4421L170.583 54.6971L172.901 54.2248L175.537 53.6873L177.572 55.2955L188.082 55.242L198.621 55.2735L209.109 55.3297L219.52 55.3699L229.869 55.391L240.18 55.4003L250.471 55.4038" stroke="var(--stroke-0, #151D1F)" stroke-width="1.10438" stroke-linecap="round" stroke-linejoin="round"/>
<path id="Path 3230" d="M16.0836 51.6492L26.209 51.6437L36.3803 51.6253L46.6495 51.5803L57.0727 51.5268L67.6642 51.6122L70.0929 49.4508L72.693 50.2235L74.702 50.8202L77.1777 51.5555L78.4201 52.0641L80.0772 52.4171L83.1624 52.8367L84.7011 53.0459L88.9461 53.6232" stroke="var(--stroke-0, #151D1F)" stroke-width="1.10438" stroke-linecap="round" stroke-linejoin="round"/>
<path id="Path 3231" d="M18.0132 48.014L27.9919 48.0039L38.0675 47.9717L48.357 47.9348L58.9726 48.1495L61.1318 45.9618L63.0356 45.1552L64.1937 44.2311L65.0072 42.1931L65.8207 39.0114L66.7223 34.8825L67.6031 30.1435L68.2937 25.4023L68.8147 21.274L69.3186 17.8639L69.8892 14.962L70.5379 12.3249L71.2446 9.81771L71.9852 7.39733L72.7408 5.05097L73.4987 2.77303L74.2573 0.560132" stroke="var(--stroke-0, #151D1F)" stroke-width="1.10438" stroke-linecap="round" stroke-linejoin="round"/>
<path id="Path 3232" d="M169.19 80.939L164.007 89.3234L154.288 103.052L144.855 114.458L135.8 122.095L127.062 121.813L118.729 114.244L118.88 93.299L110.574 86.6748L104.912 80.939" stroke="var(--stroke-0, #151D1F)" stroke-width="1.10438" stroke-linecap="round" stroke-linejoin="round"/>
<path id="Path 3233" d="M19.8882 44.496L29.7294 44.4824L39.7417 44.4586L50.1503 44.6155L61.1365 45.9604L66.958 48.2159L67.4841 48.4194L69.3742 49.2243L69.9024 49.3913L70.288 49.5057" stroke="var(--stroke-0, #151D1F)" stroke-width="1.10438" stroke-linecap="round" stroke-linejoin="round"/>
<path id="Path 3234" d="M23.4429 37.8062L32.9973 37.8245L42.8218 38.0147L53.3099 39.3125L64.1979 44.2352L69.2482 49.1087L69.9271 49.3718L70.2874 49.5111" stroke="var(--stroke-0, #151D1F)" stroke-width="1.10438" stroke-linecap="round" stroke-linejoin="round"/>
<path id="Path 3235" d="M144.324 92.7242L135.712 96.6055L127.182 96.9769L118.888 93.2984" stroke="var(--stroke-0, #151D1F)" stroke-width="1.10438" stroke-linecap="round" stroke-linejoin="round"/>
<path id="Path 3236" d="M100.209 101.25L101.532 92.0773L101.718 80.939" stroke="var(--stroke-0, #151D1F)" stroke-width="1.10438" stroke-linecap="round" stroke-linejoin="round"/>
<path id="Path 3237" d="M166.662 55.5003L166.693 55.4941L167.146 55.445L177.576 55.2984" stroke="var(--stroke-0, #151D1F)" stroke-width="1.10438" stroke-linecap="round" stroke-linejoin="round"/>
<path id="Path 3238" d="M31.4742 22.775L40.3456 22.7972L49.3815 22.9012L58.688 23.427L68.299 25.4052L77.8532 29.9624" stroke="var(--stroke-0, #151D1F)" stroke-width="1.10438" stroke-linecap="round" stroke-linejoin="round"/>
<path id="Path 3239" d="M32.9507 20.0289L41.6853 20.0479L50.5498 20.1122L59.5876 20.3642L68.8248 21.2779L78.1478 23.5587L87.2764 27.3982L96.0224 32.2196L104.449 37.1793L112.759 41.4951L121.032 44.3992L129.117 45.4844L136.92 44.7895L144.563 42.6572L152.303 39.4672L160.294 35.5606L168.661 31.2935L177.448 27.0649L186.593 23.5396L195.92 21.3527L205.174 20.4188L214.234 20.1399L223.115 20.0669L231.85 20.0497" stroke="var(--stroke-0, #151D1F)" stroke-width="1.10438" stroke-linecap="round" stroke-linejoin="round"/>
<path id="Path 3240" d="M34.3648 17.3531L42.9581 17.3686L51.6477 17.4112L60.4366 17.5252L69.3232 17.8641L78.2633 18.6938L87.1636 20.2402L95.9047 22.4704L104.411 25.0356L112.693 27.3602L120.793 28.937L128.737 29.4712L136.549 28.9657L144.355 27.6406L152.292 25.7654L160.472 23.6424L168.94 21.5788L177.666 19.8384L186.56 18.579L195.503 17.8502L204.395 17.5339L213.187 17.4223L221.878 17.38L230.468 17.3683" stroke="var(--stroke-0, #151D1F)" stroke-width="1.10438" stroke-linecap="round" stroke-linejoin="round"/>
<path id="Path 3241" d="M35.732 14.7554L44.1859 14.7668L52.7068 14.7951L61.2779 14.8498L69.8915 14.9642L78.5247 15.2048L87.1391 15.6539L95.6815 16.3443L104.093 17.1917L112.342 18.0051L120.443 18.5731L128.443 18.7394L136.414 18.4916L144.433 17.9357L152.568 17.2259L160.85 16.5089L169.272 15.8914L177.799 15.4268L186.388 15.1185L195.002 14.9386L203.603 14.845L212.167 14.7976L220.681 14.7723L229.133 14.7651" stroke="var(--stroke-0, #151D1F)" stroke-width="1.10438" stroke-linecap="round" stroke-linejoin="round"/>
<path id="Path 3242" d="M163.34 80.939L164.011 89.3234L165.378 96.5361L156.586 120.762L146.326 137.875L148.662 146.154" stroke="var(--stroke-0, #151D1F)" stroke-width="1.10438" stroke-linecap="round" stroke-linejoin="round"/>
<path id="Path 3243" d="M154.162 55.887L154.187 55.8683L156.371 54.2383L160.868 50.8823L169.284 43.9206L177.907 36.6568L186.887 30.2084L196.348 25.7298L205.947 23.5963L215.303 22.9571L224.383 22.8223L233.268 22.7984" stroke="var(--stroke-0, #151D1F)" stroke-width="1.10438" stroke-linecap="round" stroke-linejoin="round"/>
<path id="Path 3244" d="M37.0601 12.2242L45.3812 12.2318L53.7462 12.2499L62.1353 12.2795L70.5432 12.3256L78.9565 12.3984L87.3534 12.5118L95.7035 12.6699L103.978 12.8542L112.165 13.0266L120.276 13.1414L128.345 13.1674L136.418 13.1014L144.533 12.9709L152.712 12.8127L160.961 12.6585L169.271 12.5278L177.625 12.4271L186.005 12.3556L194.397 12.3058L202.787 12.2716L211.165 12.2481L219.521 12.2332L227.841 12.2291" stroke="var(--stroke-0, #151D1F)" stroke-width="1.10438" stroke-linecap="round" stroke-linejoin="round"/>
<path id="Path 3245" d="M38.3414 9.76326L46.5381 9.76811L54.7633 9.77952L62.9997 9.79652L71.2443 9.81965L79.4883 9.85006L87.7192 9.88744L95.9214 9.92957L104.083 9.97181L112.202 10.0067L120.286 10.0281L128.356 10.0313L136.433 10.0164L144.535 9.98871L152.669 9.95375L160.837 9.91711L169.032 9.8829L177.246 9.85249L185.472 9.82652L193.703 9.8055L201.933 9.7885L210.159 9.77604L218.376 9.76749L226.573 9.76538" stroke="var(--stroke-0, #151D1F)" stroke-width="1.10438" stroke-linecap="round" stroke-linejoin="round"/>
<path id="Path 3246" d="M39.5992 7.36873L47.6799 7.37147L55.7786 7.37802L63.8826 7.38773L71.9893 7.40051L80.0935 7.41603L88.1889 7.43304L96.269 7.45067L104.329 7.46651L112.37 7.47865L120.396 7.4852L128.417 7.48594L136.443 7.48077L144.482 7.47074L152.535 7.45754L160.605 7.44275L168.687 7.42787L176.779 7.41372L184.875 7.40126L192.974 7.39017L201.073 7.38152L209.17 7.37465L217.263 7.37011L225.345 7.36905" stroke="var(--stroke-0, #151D1F)" stroke-width="1.10438" stroke-linecap="round" stroke-linejoin="round"/>
<path id="Path 3247" d="M40.8257 5.0331L48.7969 5.0348L56.7794 5.0386L64.7641 5.04419L72.7488 5.05074L80.7318 5.05866L88.7097 5.06732L96.6798 5.07598L104.641 5.08327L112.594 5.08876L120.541 5.09192H128.487L136.435 5.08949L144.388 5.08464L152.349 5.07809L160.316 5.0708L168.29 5.0632L176.267 5.05591L184.248 5.04968L192.229 5.04377L200.211 5.03934L208.192 5.03585L216.17 5.0331L224.143 5.03279" stroke="var(--stroke-0, #151D1F)" stroke-width="1.10438" stroke-linecap="round" stroke-linejoin="round"/>
<path id="Path 3248" d="M42.0211 2.76389L49.8879 2.76495L57.7612 2.76706L65.635 2.77012L73.5084 2.77392L81.3807 2.77804L89.2507 2.78258L97.1171 2.78701L104.98 2.79082L112.839 2.79367L120.696 2.79504H128.553L136.41 2.79367L144.271 2.79082L152.133 2.78775L159.999 2.78364L167.868 2.77984L175.738 2.77603L183.61 2.77223L191.483 2.76938L199.355 2.76664L207.227 2.76494L215.099 2.76357L222.966 2.76326" stroke="var(--stroke-0, #151D1F)" stroke-width="1.10438" stroke-linecap="round" stroke-linejoin="round"/>
<path id="Path 3249" d="M43.1773 0.553064L50.9459 0.554755L58.7162 0.55655L66.487 0.558872L74.2571 0.561722L82.0259 0.564785L89.7935 0.568271L97.5589 0.571333L105.322 0.574079L113.084 0.575874L120.844 0.576929H128.603L136.364 0.575874L144.125 0.573763L151.889 0.571333L159.654 0.568271L167.421 0.565524L175.19 0.562358L182.959 0.559928L190.728 0.557497L198.498 0.555806L206.268 0.554115L214.037 0.553059L221.806 0.55232" stroke="var(--stroke-0, #151D1F)" stroke-width="1.10438" stroke-linecap="round" stroke-linejoin="round"/>
<path id="Path 3250" d="M194.607 48.8225L199.882 43.4207L209.804 37.5621L220.017 35.1867L229.861 34.6674L239.374 34.6031" stroke="var(--stroke-0, #151D1F)" stroke-width="1.10438" stroke-linecap="round" stroke-linejoin="round"/>
<path id="Path 3251" d="M158.941 80.939L153.44 86.0888L144.32 92.7248L144.86 114.458L146.326 137.875L136.163 145.063L126.786 145.019L117.61 137.868L118.734 114.244L110.288 104.203L101.535 92.0773L94.3882 80.939" stroke="var(--stroke-0, #151D1F)" stroke-width="1.10438" stroke-linecap="round" stroke-linejoin="round"/>
<path id="Path 3252" d="M187.776 37.6344L188.945 44.4512L184.688 49.9394L182.731 52.4618L182.505 52.7522" stroke="var(--stroke-0, #151D1F)" stroke-width="1.10438" stroke-linecap="round" stroke-linejoin="round"/>
<path id="Path 3253" d="M84.7104 53.0492L85.7558 46.3804L77.0459 36.9578L67.6146 30.1476L57.7363 26.7726L48.1584 25.8112L38.9603 25.6329L29.9586 25.6031" stroke="var(--stroke-0, #151D1F)" stroke-width="1.10438" stroke-linecap="round" stroke-linejoin="round"/>
<path id="Path 3254" d="M67.4806 48.4237L63.0369 45.1581L51.8644 41.8174L41.3364 41.1446L31.3954 41.0914L21.6929 41.0966" stroke="var(--stroke-0, #151D1F)" stroke-width="1.10438" stroke-linecap="round" stroke-linejoin="round"/>
<path id="Path 3255" d="M197.568 48.044L202.077 45.1033L212.721 42.0074L223.085 41.1794L233.08 41.0719L242.844 41.0723" stroke="var(--stroke-0, #151D1F)" stroke-width="1.10438" stroke-linecap="round" stroke-linejoin="round"/>
<path id="Path 3256" d="M0.552301 80.9378L3.0183 76.2868L5.39412 71.806L7.68484 67.4859L9.89467 63.318L12.0289 59.2937L14.0911 55.4069L16.0862 51.6493L18.0181 48.0148L19.8883 44.4982L21.6965 41.0945L23.4436 37.803L25.135 34.612L26.7795 31.5175L28.3851 28.5149L29.9519 25.5998L31.4737 22.7729L32.9454 20.0258L34.365 17.3538L35.7345 14.754L37.0597 12.2244L38.3465 9.76217L39.5998 7.36639L40.8226 5.03418L42.0162 2.76384L43.1824 0.55232" stroke="var(--stroke-0, #151D1F)" stroke-width="1.10438" stroke-linecap="round" stroke-linejoin="round"/>
<path id="Path 3257" d="M11.9976 80.94L14.2507 76.289L16.4215 71.8082L18.5143 67.4881L20.5345 63.3198L22.4857 59.2953L24.3753 55.4067L26.2105 51.646L27.9957 48.007L29.7284 44.4869L31.3978 41.0916L32.9969 37.8235L34.5367 34.6539L36.0382 31.5678L37.5123 28.56L38.9525 25.6318L40.344 22.7973L41.6789 20.0471L42.9572 17.3716L44.1874 14.7677L45.3797 12.2342L46.5421 9.76925L47.6795 7.37136L48.7927 5.03808L49.882 2.76712L50.9499 0.556226" stroke="var(--stroke-0, #151D1F)" stroke-width="1.10438" stroke-linecap="round" stroke-linejoin="round"/>
<path id="Path 3258" d="M153.58 80.939L153.446 86.0888L154.298 103.052L156.592 120.762L158.281 126.768L148.668 146.154L137.125 156.195L125.86 155.545L115.724 145.794L117.616 137.868L108.701 122.819L100.217 101.25L99.2495 100.967L93.7562 87.3326L91.8238 83.1699L90.6304 80.939" stroke="var(--stroke-0, #151D1F)" stroke-width="1.10438" stroke-linecap="round" stroke-linejoin="round"/>
<path id="Path 3259" d="M23.4429 80.9382L25.483 76.2872L27.4487 71.8064L29.3443 67.486L31.1748 63.3173L32.9483 59.2908L34.6779 55.397L36.3803 51.6259L38.0698 47.973L39.7392 44.4612L41.3374 41.143L42.8199 38.0119L44.2066 34.9495L45.5486 31.8938L46.8662 28.8347L48.1492 25.8084L49.3785 22.8995L50.5419 20.1096L51.6453 17.4123L52.7067 14.7942L53.7432 12.2504L54.7658 9.77885L55.7767 7.3761L56.7737 5.04009L57.7538 2.76743L58.7187 0.556226" stroke="var(--stroke-0, #151D1F)" stroke-width="1.10438" stroke-linecap="round" stroke-linejoin="round"/>
<path id="Path 3260" d="M34.8882 80.9398L36.7158 76.2888L38.4765 71.808L40.1754 67.4872L41.8199 63.3168L43.4258 59.2848L45.0217 55.3771L46.6487 51.5825L48.3584 47.9376L50.1469 44.6197L51.8645 41.8174L53.3071 39.3113L54.5161 36.6448L55.6244 33.6239L56.6958 30.269L57.7261 26.7714L58.6841 23.427L59.5788 20.3632L60.4333 17.5279L61.277 14.8504L62.1314 12.2817L63.0013 9.79744L63.8798 7.3874L64.7575 5.04727L65.6267 2.77208L66.4886 0.560132" stroke="var(--stroke-0, #151D1F)" stroke-width="1.10438" stroke-linecap="round" stroke-linejoin="round"/>
<path id="Path 3261" d="M46.3414 80.9414L47.9559 76.2904L49.5119 71.8093L51.0155 67.4878L52.4803 63.3129L53.9358 59.2683L55.4379 55.334L57.0786 51.5305L58.9807 48.1539" stroke="var(--stroke-0, #151D1F)" stroke-width="1.10438" stroke-linecap="round" stroke-linejoin="round"/>
<path id="Path 3262" d="M57.7867 80.9364L59.1881 76.2854L60.5399 71.8038L61.8501 67.4804L63.1427 63.2975L64.469 59.2301L65.9238 55.263L67.6686 51.6109" stroke="var(--stroke-0, #151D1F)" stroke-width="1.10438" stroke-linecap="round" stroke-linejoin="round"/>
<path id="Path 3263" d="M69.232 80.937L70.421 76.286L71.5687 71.8038L72.6878 67.4765L73.8149 63.2801L75.0288 59.1792L76.4644 55.2184L78.3503 52.1812" stroke="var(--stroke-0, #151D1F)" stroke-width="1.10438" stroke-linecap="round" stroke-linejoin="round"/>
<path id="Path 3264" d="M80.6773 80.9401L81.6532 76.2891L82.597 71.8058L83.5253 67.4737L84.4877 63.2579L85.5878 59.1187L86.9877 55.2789" stroke="var(--stroke-0, #151D1F)" stroke-width="1.10438" stroke-linecap="round" stroke-linejoin="round"/>
<path id="Path 3265" d="M103.568 80.9368L104.118 76.2855L104.652 71.8005L105.187 67.4559L105.781 63.1966L106.544 58.9961L107.618 55.9117" stroke="var(--stroke-0, #151D1F)" stroke-width="1.10438" stroke-linecap="round" stroke-linejoin="round"/>
<path id="Path 3266" d="M115.013 80.9388L115.351 76.2874L115.678 71.8014L116.006 67.4533L116.377 63.1792L116.873 58.9608L117.584 56.3101" stroke="var(--stroke-0, #151D1F)" stroke-width="1.10438" stroke-linecap="round" stroke-linejoin="round"/>
<path id="Path 3267" d="M126.466 80.9395L126.591 76.2881L126.711 71.8022L126.829 67.4523L126.956 63.173L127.121 58.9466L127.338 56.4937" stroke="var(--stroke-0, #151D1F)" stroke-width="1.10438" stroke-linecap="round" stroke-linejoin="round"/>
<path id="Path 3268" d="M177.568 55.2984L178.977 59.1442L180.034 63.2714L180.953 67.4777L181.843 71.8068L182.752 76.289L183.692 80.94" stroke="var(--stroke-0, #151D1F)" stroke-width="1.10438" stroke-linecap="round" stroke-linejoin="round"/>
<path id="Path 3269" d="M196.888 51.6461L198.624 55.2751L200.075 59.2379L201.375 63.3026L202.634 67.4837L203.91 71.8066L205.227 76.2877L206.593 80.9387" stroke="var(--stroke-0, #151D1F)" stroke-width="1.10438" stroke-linecap="round" stroke-linejoin="round"/>
<path id="Path 3270" d="M167.162 55.482L168.474 59.0841L169.384 63.2444L170.126 67.4684L170.823 71.8023L171.527 76.2856L172.255 80.9366" stroke="var(--stroke-0, #151D1F)" stroke-width="1.10438" stroke-linecap="round" stroke-linejoin="round"/>
<path id="Path 3271" d="M205.677 48.1656L207.477 51.5378L209.103 55.3327L210.594 59.2677L212.026 63.3122L213.459 67.4867L214.93 71.8082L216.451 76.289L218.03 80.94" stroke="var(--stroke-0, #151D1F)" stroke-width="1.10438" stroke-linecap="round" stroke-linejoin="round"/>
<path id="Path 3272" d="M77.1797 51.5553L75.0833 48.4676L65.8249 39.0119L55.6273 33.6215L45.5506 31.893L36.0387 31.5652L26.7789 31.5172" stroke="var(--stroke-0, #151D1F)" stroke-width="1.10438" stroke-linecap="round" stroke-linejoin="round"/>
<path id="Path 3273" d="M186.169 52.2633L188.079 55.2448L189.521 59.1966L190.702 63.2906L191.791 67.4817L192.874 71.8073L193.986 76.2888L195.14 80.9399" stroke="var(--stroke-0, #151D1F)" stroke-width="1.10438" stroke-linecap="round" stroke-linejoin="round"/>
<path id="Path 3274" d="M156.904 55.7906L158.017 59.0348L158.739 63.2229L159.292 67.4666L159.792 71.806L160.291 76.2899L160.806 80.9413" stroke="var(--stroke-0, #151D1F)" stroke-width="1.10438" stroke-linecap="round" stroke-linejoin="round"/>
<path id="Path 3275" d="M198.427 46.9226L200.847 44.7615L211.138 39.8703L221.478 38.1487L231.42 37.8202L241.067 37.7867" stroke="var(--stroke-0, #151D1F)" stroke-width="1.10438" stroke-linecap="round" stroke-linejoin="round"/>
<path id="Path 3276" d="M146.857 56.15L147.642 58.9866L148.118 63.1954L148.462 67.4567L148.761 71.8013L149.055 76.2863L149.357 80.9376" stroke="var(--stroke-0, #151D1F)" stroke-width="1.10438" stroke-linecap="round" stroke-linejoin="round"/>
<path id="Path 3277" d="M137.021 56.4195L137.18 57.6413L137.351 58.9574L137.526 63.1793L137.642 67.4541L137.734 71.8026L137.821 76.2883L137.91 80.9396" stroke="var(--stroke-0, #151D1F)" stroke-width="1.10438" stroke-linecap="round" stroke-linejoin="round"/>
<path id="Path 3278" d="M221.81 0.55232L222.961 2.76395L224.139 5.0346L225.345 7.36745L226.578 9.76503L227.84 12.23L229.135 14.7644L230.468 17.3698L231.845 20.0474L233.266 22.7986L234.727 25.6255L236.223 28.5351L237.763 31.5254L239.371 34.6055L241.067 37.7851L242.843 41.0732L244.678 44.4805L246.562 48.0037L248.491 51.6438L250.47 55.4052L252.508 59.2939L254.613 63.3183L256.792 67.4867L259.049 71.8067L261.39 76.2875L263.82 80.9386" stroke="var(--stroke-0, #151D1F)" stroke-width="1.10438" stroke-linecap="round" stroke-linejoin="round"/>
<path id="Path 3279" d="M214.044 0.55232L215.096 2.76352L216.17 5.03418L217.266 7.36776L218.384 9.7664L219.523 12.2333L220.686 14.7709L221.88 17.3808L223.112 20.0638L224.384 22.8217L225.69 25.6624L227.025 28.5938L228.404 31.5981L229.861 34.669L231.423 37.8178L233.081 41.072L234.803 44.4657L236.564 47.991L238.356 51.6358L240.182 55.401L242.051 59.2921L243.975 63.3172L245.964 67.4859L248.024 71.806L250.16 76.2868L252.378 80.9378" stroke="var(--stroke-0, #151D1F)" stroke-width="1.10438" stroke-linecap="round" stroke-linejoin="round"/>
<path id="Path 3280" d="M206.271 0.556226L207.22 2.76775L208.186 5.03977L209.169 7.37515L210.162 9.7778L211.162 12.2511L212.168 14.799L213.185 17.4258L214.227 20.1397L215.299 22.9594L216.397 25.9211L217.524 29.0243L218.709 32.1516L220.012 35.1912L221.476 38.1491L223.082 41.1825L224.765 44.4588L226.467 47.963L228.167 51.6186L229.866 55.3945L231.58 59.2914L233.328 63.3194L235.128 67.4884L236.991 71.8088L238.922 76.2896L240.927 80.9407" stroke="var(--stroke-0, #151D1F)" stroke-width="1.10438" stroke-linecap="round" stroke-linejoin="round"/>
<path id="Path 3281" d="M74.7007 50.8224L75.08 48.4701L75.9841 43.3273L77.0354 36.9567L77.8489 29.9625" stroke="var(--stroke-0, #151D1F)" stroke-width="1.10438" stroke-linecap="round" stroke-linejoin="round"/>
<path id="Path 3282" d="M198.505 0.556226L199.352 2.76775L200.209 5.04157L201.076 7.38033L201.94 9.78857L202.788 12.2729L203.607 14.8447L204.397 17.5358L205.17 20.4169L205.947 23.5968L206.759 27.1696L207.654 30.9869L208.663 34.5928L209.804 37.5649L211.14 39.8691L212.723 42.0087L214.465 44.6597L216.213 47.9423L217.901 51.5769L219.521 55.3717L221.104 59.2821L222.686 63.3156L224.3 67.4863L225.966 71.8071L227.693 76.288L229.484 80.939" stroke="var(--stroke-0, #151D1F)" stroke-width="1.10438" stroke-linecap="round" stroke-linejoin="round"/>
<path id="Path 3283" d="M190.74 0.556226L191.484 2.7688L192.232 5.04431L192.981 7.3873L193.714 9.80388L194.403 12.3055L195.011 14.9367L195.51 17.8504L195.921 21.3491L196.352 25.7287L197 30.8954L197.917 36.1115L198.926 40.4907L199.885 43.4218L200.853 44.7586L202.083 45.1029L203.785 45.8835L205.689 48.1629L216.217 47.9406L226.476 47.9596L236.568 47.9904L246.569 48.0025" stroke="var(--stroke-0, #151D1F)" stroke-width="1.10438" stroke-linecap="round" stroke-linejoin="round"/>
<path id="Path 3284" d="M182.959 0.560132L183.601 2.77313L184.24 5.0517L184.871 7.39986L185.472 9.82637L186 12.3567L186.386 15.118L186.556 18.5807L186.583 23.5375L186.88 30.2088L187.768 37.6328L179.165 46.544L174.196 52.6334L172.896 54.2265" stroke="var(--stroke-0, #151D1F)" stroke-width="1.10438" stroke-linecap="round" stroke-linejoin="round"/>
<path id="Path 3285" d="M175.201 0.560132L175.739 2.7745L176.27 5.05551L176.785 7.40989L177.257 9.84992L177.631 12.4258L177.807 15.4239L177.672 19.8377L177.449 27.0604L177.911 36.6548L179.175 46.5416L180.246 53.0528" stroke="var(--stroke-0, #151D1F)" stroke-width="1.10438" stroke-linecap="round" stroke-linejoin="round"/>
<path id="Path 3286" d="M97.5664 0.571851L97.1147 2.78823L96.679 5.07831L96.272 7.44959L95.9289 9.92974L95.7054 12.6713L95.6864 16.3441L95.9073 22.4724L96.0195 32.2178L95.4351 44.5616L103.827 52.2251L103.512 55.7549" stroke="var(--stroke-0, #151D1F)" stroke-width="1.10438" stroke-linecap="round" stroke-linejoin="round"/>
<path id="Path 3287" d="M167.427 0.567945L167.864 2.78295L168.287 5.06744L168.689 7.42869L169.038 9.88497L169.272 12.5311L169.275 15.8932L168.941 21.5827L168.657 31.2936L169.283 43.9232L170.584 54.701" stroke="var(--stroke-0, #151D1F)" stroke-width="1.10438" stroke-linecap="round" stroke-linejoin="round"/>
<path id="Path 3288" d="M105.329 0.575757L104.976 2.79319L104.639 5.08676L104.332 7.46659L104.09 9.97314L103.979 12.8568L104.097 17.1927L104.413 25.0387L104.445 37.1786L103.826 52.2263L107.803 55.3972L108.496 55.9501" stroke="var(--stroke-0, #151D1F)" stroke-width="1.10438" stroke-linecap="round" stroke-linejoin="round"/>
<path id="Path 3289" d="M159.662 0.567945L159.997 2.78401L160.315 5.07229L160.608 7.44083L160.844 9.91644L160.963 12.6591L160.854 16.5079L160.475 23.6435L160.291 35.558L160.868 50.8822L161.341 55.6562" stroke="var(--stroke-0, #151D1F)" stroke-width="1.10438" stroke-linecap="round" stroke-linejoin="round"/>
<path id="Path 3290" d="M151.896 0.571851L152.13 2.78897L152.348 5.08043L152.538 7.45646L152.677 9.95392L152.714 12.8141L152.573 17.2257L152.294 25.7674L152.3 39.4654L152.77 55.9378" stroke="var(--stroke-0, #151D1F)" stroke-width="1.10438" stroke-linecap="round" stroke-linejoin="round"/>
<path id="Path 3291" d="M144.13 0.575757L144.266 2.79351L144.385 5.08845L144.482 7.47113L144.54 9.99035L144.533 12.9739L144.435 17.937L144.356 27.6441L144.557 42.6569L144.909 56.2061" stroke="var(--stroke-0, #151D1F)" stroke-width="1.10438" stroke-linecap="round" stroke-linejoin="round"/>
<path id="Path 3292" d="M136.365 0.575757L136.402 2.79425L136.428 5.09119L136.44 7.47905L136.434 10.0159L136.414 13.1022L136.412 18.4908L136.545 28.9671L136.911 44.7871L137.151 56.4146" stroke="var(--stroke-0, #151D1F)" stroke-width="1.10438" stroke-linecap="round" stroke-linejoin="round"/>
<path id="Path 3293" d="M189.196 50.8651L189.998 49.7173L188.943 44.451L197.911 36.1144L207.653 30.9881L217.527 29.0238L227.023 28.5961L236.224 28.5367" stroke="var(--stroke-0, #151D1F)" stroke-width="1.10438" stroke-linecap="round" stroke-linejoin="round"/>
<path id="Line 371" d="M165.373 96.5367L166.116 97.5668" stroke="var(--stroke-0, #151D1F)" stroke-width="1.10438" stroke-linecap="round" stroke-linejoin="round"/>
<path id="Path 3294" d="M190.206 50.5367L189.998 49.7152L192.701 46.9205L198.92 40.4915L208.66 34.5919L218.711 32.149L228.401 31.5984L237.763 31.525" stroke="var(--stroke-0, #151D1F)" stroke-width="1.10438" stroke-linecap="round" stroke-linejoin="round"/>
<path id="Path 3295" d="M183.951 52.5605L183.963 52.5538L186.078 52.1117L196.886 51.6461" stroke="var(--stroke-0, #151D1F)" stroke-width="1.10438" stroke-linecap="round" stroke-linejoin="round"/>
<path id="Path 3296" d="M58.9742 48.1539L66.5863 49.0199L69.4964 49.3514" stroke="var(--stroke-0, #151D1F)" stroke-width="1.10438" stroke-linecap="round" stroke-linejoin="round"/>
<path id="Path 3297" d="M175.537 53.6905L180.241 53.0596L182.499 52.7564L183.933 52.5642L183.963 52.56L186.076 52.1134L188.558 51.2062L189.061 51.0586L190.199 50.7243L190.249 50.7097L192.268 50.1168L192.938 49.6567L194.856 49.357L196.884 51.6477L207.482 51.5381L217.899 51.5782L228.169 51.6183L238.354 51.6383L248.492 51.6456" stroke="var(--stroke-0, #151D1F)" stroke-width="1.10438" stroke-linecap="round" stroke-linejoin="round"/>
<path id="Path 3298" d="M67.6695 51.6109L71.5694 51.8186L78.4253 52.0627L79.4958 52.2415L80.0825 52.4157" stroke="var(--stroke-0, #151D1F)" stroke-width="1.10438" stroke-linecap="round" stroke-linejoin="round"/>
<path id="Path 3299" d="M100.216 101.251L97.9485 96.3658L93.7554 87.3336" stroke="var(--stroke-0, #151D1F)" stroke-width="1.10438" stroke-linecap="round" stroke-linejoin="round"/>
<path id="Path 3300" d="M106.958 128.278L99.9111 103.331L99.2436 100.967L91.8179 83.1699L92.1634 80.939" stroke="var(--stroke-0, #151D1F)" stroke-width="1.10438" stroke-linecap="round" stroke-linejoin="round"/>
<path id="Path 3301" d="M173.634 80.939L172.61 83.2076L166.126 97.5662L158.279 126.768" stroke="var(--stroke-0, #151D1F)" stroke-width="1.10438" stroke-linecap="round" stroke-linejoin="round"/>
<path id="Path 3302" d="M173.031 80.939L172.435 82.1535L165.373 96.5361" stroke="var(--stroke-0, #151D1F)" stroke-width="1.10438" stroke-linecap="round" stroke-linejoin="round"/>
<path id="Path 3303" d="M83.1682 52.839L80.3035 49.0428L75.9911 43.3274L66.7302 34.8856L56.7023 30.2693L46.8719 28.8366L37.5165 28.56L28.3882 28.5172" stroke="var(--stroke-0, #151D1F)" stroke-width="1.10438" stroke-linecap="round" stroke-linejoin="round"/>
<path id="Path 3304" d="M72.6988 50.2225L72.1491 49.6479L70.9312 48.375L65.0153 42.1929L54.5228 36.6417L44.2124 34.948L34.541 34.6506L25.1382 34.6109" stroke="var(--stroke-0, #151D1F)" stroke-width="1.10438" stroke-linecap="round" stroke-linejoin="round"/>
<path id="Path 3305" d="M91.7983 54.2643L90.383 52.4178L85.7534 46.3771L86.8729 36.7876L77.857 29.9604L78.1467 23.5557L78.2677 18.6945L78.5315 15.2034L78.9604 12.3986L79.4977 9.84897L80.0985 7.4137L80.7329 5.05973L81.3802 2.77799L82.0353 0.564039" stroke="var(--stroke-0, #151D1F)" stroke-width="1.10438" stroke-linecap="round" stroke-linejoin="round"/>
<path id="Path 3306" d="M92.1226 80.9378L92.7997 76.8134L92.886 76.2865L93.6256 71.8025L94.3601 67.4637L95.1485 63.2263L96.1068 59.0514L97.398 55.5269L97.4014 55.5172" stroke="var(--stroke-0, #151D1F)" stroke-width="1.10438" stroke-linecap="round" stroke-linejoin="round"/>
<path id="Path 3307" d="M192.263 50.1165L194.851 49.3567L205.678 48.1656" stroke="var(--stroke-0, #151D1F)" stroke-width="1.10438" stroke-linecap="round" stroke-linejoin="round"/>
</g>
</svg>
