<svg xmlns="http://www.w3.org/2000/svg" fill="none" overflow="visible" preserveAspectRatio="none" style="display:block" viewBox="0 0 64 74">
  <g stroke="#231f20" stroke-linecap="round" stroke-width=".5">
    <path d="m59.839 56.058-.661 1.101-.378.64-.016.034-2.126 3.549-.756 1.117-1.464 1.117-.363.444-3.212 3.779-1.795.936-.488.362-3.04 2.218-.22.164M3.574 41.353l1.307-5.487 2.141-5.504 2.913-5.472 3.575-5.192 4.142-4.617 4.598-3.614 4.897-2.3 5.04-.756 5.385 2.974 5.212 3.204 4.882 3.121 4.425 3.007 3.811 3.072 3.102 3.401 2.284 3.894 1.401 4.486"/>
    <path d="m16.22 10.12 5.038-1.988 5.386-.558 1.968.296 3.575.542.063.131 1.386 4.24 1.386 4.468 1.307 4.206 1.196 3.91 1.024 3.796.819 3.976.614 4.354.378 4.749.126 5.11-.126 5.356-.378 5.372-.614 5.176-.82 4.617-1.023 3.63-1.196 2.104-2.74.18-1.166-.016"/>
    <path d="m5.92 48.418.41-5.29 1.18-5.29 1.938-5.291 2.614-5.29 3.244-5.21 3.748-4.912 4.157-4.19 4.41-3.006 4.566-1.528 5.039 3.4 4.897 3.468 4.599 3.286 4.141 3.138 3.575 3.204 2.913 3.532 2.142 4.01 1.307 4.567.44 5.044"/>
    <path d="m63.634 32.844.11 1.15.378 3.828v1.33l-.96 1.447-.473 5.438-1.89 1.43-1.306 5.586-2.63 1.298-1.937 5.389-3.102 1.1-2.268 4.831-3.275.87-2.268 3.83-3.118.64-1.937 2.267-2.63.329-1.307.246"/>
    <path d="m55.902 20.52.756.756.976 1.02 1.37 1.429.835 1.051v1.183l-.835 1.232-1.653 1.25-2.425 1.182-3.102 1.1-3.717.97-4.188.805-4.551.641-4.756.526-4.85.394-4.756.263-4.551.131-4.189-.13-3.716-.543-3.102-1.232-2.426-2.186-1.653-3.351 3.102-5.373 3.811-4.896 4.425-4.042 4.882-2.875 5.228-1.446 5.37.033 3.937 4.058 3.81 3.943 3.59 3.648 3.229 3.434 2.803 3.466 2.268 3.763 1.669 4.206 1.023 4.7.347 5.092-.347 5.357-1.023 5.454"/>
    <path d="m53.493 55.533-4.032 1.019-4.535.854-4.944.674-5.166.542-5.26.41-5.164.33-4.93.246-4.55.05-4.032-.28-3.37-.937-2.63-1.971-1.306-4.666-.441-5.094.44-5.356-1.889-3.204-.945-4.683 1.433-5.47 2.362-5.373v-4.88l.835-4.519 3.102-3.73 3.811-2.776 4.425-1.56 4.882-.198 5.228 1.15 5.37 2.3 5.543 2.481 5.385 2.909 5.04 2.973 4.566 2.909 3.937 2.99 3.181 3.286 2.362 3.795 1.433 4.403-.945 1.414.473 5.027-1.922 1.462-.44 5.406-2.756 1.38-3.528 1.232-4.22 1.068-4.771.871-5.166.69-5.417.526-5.511.427-5.417.345-5.165.28-4.772.18-4.22-.131-3.527-.74-2.756-1.79-1.89-3.204-.945-4.666-.488-5.094.488-5.373v-5.57l1.433-5.224 2.362-4.93 3.181-4.353 3.937-3.483 4.567-2.383 5.039-1.051 5.386.345 1.952.558 3.59 1.035 2.347-1.938 2.283-.313 2.142 1.25 2.031 1.51.394.247 2.142 1.627 1.795 1.446.929.723 1.716 1.265.19.148 2.708 2.053 1.102.904.567.51.74.624 2.63 2.053.756 1.052.425.444 2.756 2.76.394.608 1.732 2.744.236.378.283.837 1.15 3.5v1.314l.488 4.995-.488 5.455-.205.855-1.055 4.206-.173.673-.394.953-1.055 2.58-.913 2.185-.835 1.249-.362.591-2.74 4.6-.598.69-1.764 2.022-1.449 1.643-1.228.985-.835.576-1.511 1.067-1.796 1.25-1.401.788-1.795.69-2.142.591-2.063.427-.378.066-2.126.395-1.795.164-1.874-.016-.724-.066h-1.638l-2.74-.247-2.63-.525-1.937-1.331-3.118-.658-2.267-2.645-1.827-3.927-1.354-4.78-.835-5.193-.283-5.307.283-5.159.835-4.929 1.354-4.748 1.827-4.683 2.267-4.765 2.63-4.88 2.914-4.698 3.086-4.042 3.197-2.843 5.385 1.331.945.411 4.268 1.84.882.493 4 2.218.487.312 3.937 2.547.63 1.084.441.329 3.496 2.596v1.1l-.756 1.118-1.464 1.117-2.126 1.068-2.756.986-3.275.87-3.717.74-4.015.592-4.22.46-4.284.312-4.22.164-4.016-.066-3.716-.394-3.276-.854-2.755-1.528-2.126-2.366-1.465-3.253-.756-3.993 3.937-4.272 4.567-3.253V7.524l.488-2.366.945-1.988 1.401-1.495 1.796-.97 3.59 1.282 3.81 2.728 3.938 3.696 4.566 3.763 4.41 3.713 4.157 3.467 3.748 3.286 3.244 3.335 2.614 3.648 1.937 4.124 1.18 4.633.41 5.077-.41 5.39-1.18 5.503zm0 0-1.67 5.307-3.716.953-4.189.805-4.55.657-4.756.526-4.85.378-4.756.28-4.551.13-4.189-.13-3.716-.543-3.102-1.232L7.51 58.44 6.33 53.594l-.41-5.175-2.787-1.709-1.906-3.17-.976-4.7v-5.652l.488-5.29.945-5.29 1.402-4.93 2.283-4.453 1.653-3.351 2.914-3.401 3.574-2.317 1.796-1.84 3.747-.641 4.158.97 4.409 2.398 4.567 3.368 4.566.033.158.066 3.134 1.002 1.118.345.96 1.118.662 1.018.33.953v.854l-.33.79-.662.69-.96.607-1.229.526-1.464.394-1.654.296-1.795.148h-1.874l-1.92-.18-1.875-.362-1.795-.592-1.653-.821-1.465-1.052-1.228-1.298-.96-1.479-.662-1.643-.331-1.692v-1.66l.33-1.511.662-1.298.96-1.019 1.229-.657 1.465-.328 3.086 2.875 3.197 3.877 3.937-.64.63.673.472.674.346.624.158.608v.542l-.158.493-.346.427-.473.362-.63.296-.74.197-.85.115h-.898l-.96-.082-.976-.197-.945-.313-.914-.41-.85-.526-.74-.625-.63-.69-.473-.772-.33-.788-.173-.806v-.755l.173-.707.33-.591.473-.477.63-.328.74-.181h.85l2.347 3.877 3.196 4.256 3.087 4.14 2.913 3.845 2.63 3.582 2.268 3.598 1.826 3.861 1.355 4.272.834 4.732.284 5.093-.284 5.356-.834 5.406-1.355 5.241-1.826 4.748-3.717.74-4.015.591-4.22.46-4.284.329-4.22.148-4.016-.066-3.716-.378-3.276-.87-2.267-3.599-1.67-4.518-1.023-5.044-.346-5.242.346-5.224 1.024-5.094 1.669-4.994 2.267-4.995 2.803-5.044 3.229-4.962 3.59-4.535 3.81-3.615 3.938-2.218 5.039.707.504.18 3.7 1.414.693.263.992.542 3.606 2.02.615.428 1.763 1.232 1.764 1.232 1.102.904.992.789.473.394 2.472 2.004"/>
    <path d="m17.62 1.116 3.229-.41L22.99.262l2.914 1.396 1.653.05 1.795.394 1.874.707.473 2.152.488 3.45.488 4.289.472 4.55.441 4.371.394 4.075.346 3.927.284 4.042.205 4.354.126 4.748.031 5.126-.031 5.34-.126 5.389-.205 5.16-.284 4.55-.346 3.5-.394 1.955"/>
    <path d="m61.24 42.06-2.787 1.396-3.59 1.265-4.283 1.068-4.85.887-5.244.674-5.512.542-5.574.411-5.512.361-5.244.296-4.85.197-4.283-.065-3.59-.674M17.62 69.876l-2.314-1.693-.095-.082L14 67.28l-1.937-1.298-2.126-2.366-.11-.115-.992-1.068-1.811-1.972M16.22 10.12l.487 2.58.945 2.383 1.402 2.053 1.795 1.643 2.142 1.216 2.425.854 2.63.51 2.74.246 2.803.017 2.74-.165 2.63-.328 2.424-.477 2.142-.591 1.795-.707 1.402-.788.945-.855.488-.936v-1.002l-.488-1.068-.945-1.167-1.402-1.298-3.07-1.758-.693-.394-.394-.23-1.228-1.183-.85-.197-2.804-.658-.157-.049-.74-.657-.85-.64-.898-.592-.96-.51-.977-.41-.945-.296-.913-.132-2.284-2.826-.488-.295L25.416.36"/>
    <path d="m25.415 73-2.425-.839-2.63-1.15-2.74-1.133-.771-.641-2.032-1.742-2.755-1.511-.284-.362-2.33-2.957-2.426-2.202-2.141-3.993-1.796-3.286L1.684 48.6l-.457-5.06.457-5.39 1.401-5.57-.913-4.583v-5.323l.913-4.995 1.796-3.615.33-.657.19-.362 1.621-3.17"/>
    <path d="m62.69 35.571-1.89 1.446-2.756 1.364-3.528 1.248-4.22 1.068-4.771.855-5.166.69-5.417.525-5.511.428-5.417.361-5.165.28-4.772.164-4.22-.132-3.528-.74-2.755-1.774"/>
    <path d="M28.045 73.524 26.85 71.98l-1.024-3.171-.819-4.37-.614-5.077-.378-5.357-.126-5.34.126-5.11.378-4.78.614-4.453.819-4.223 1.024-4.255 1.196-4.486 1.307-4.65 1.402-4.518 1.433-3.779 1.449-2.53 1.386-.97"/>
    <path d="m30.785 73.77-.394-1.758-.346-3.352-.284-4.501-.204-5.127-.126-5.372-.032-5.357.032-5.11.126-4.764.204-4.37.284-4.125.346-4.058.394-4.272.44-4.534.473-4.568.489-4.091.488-3.04.472-1.593M63.634 44.606l-.944 1.429-1.402 5.652-1.795 1.364-2.142 5.487-2.425 1.2-2.614 4.945-2.756.986-2.803 3.96-2.74.74-2.63 2.43-2.44.494-.473.115-1.653.28"/>
    <path d="m62.201 50.341-.913 1.347-.236.592-2.047 5.027-1.654 1.233-2.913 5.077-2.126 1.068-3.244 4.09-2.315.855-.315.246-2.913 2.334M62.201 28.506v1.248l-.913 1.331-1.795 1.364-2.63 1.298-3.37 1.183-4.031 1.035-4.536.838-4.944.69-5.165.526-5.26.41-5.165.345-4.93.23-4.55.066-4.031-.296-3.37-.936-2.63-1.972-1.795-3.286 2.283-5.57-.835-4.387 3.181-4.978V13.39l.756-3.894 1.465-3.023 2.126-2.005 1.905-1.265 1.339-.887 2.315-1.2 2.74-.575 2.63-.28 2.424.1 2.63.673 1.307 1.068 1.307 2.415.095.148 1.433 3.746 5.543 1.94.157.065 5.228 2.53.284.164 4.755 2.662 4.567 2.875v1.035l-.63 1.036-1.228.985-1.795.937-2.315.854-2.74.74-3.118.64-3.37.493-3.543.329-3.59.18-3.544-.032-3.37-.312-3.118-.658-2.74-1.133-2.314-1.693-1.796-2.35-1.228-2.957-.63-3.368V9.906l.63-3.187 1.228-2.563 4.142-.986 4.598.493 4.898 1.857 5.039 2.891.063.132 2.283 4.239 2.283 4.32 2.142 4.026 1.937 3.746 1.67 3.697 1.354 3.927 1.007 4.305.599 4.748.204 5.126-.204 5.34-.599 5.39-1.008 5.191-1.354 4.683-1.669 3.73-3.37.492-3.543.329-3.59.18-3.544-.032-3.37-.312-1.669-2.925-1.354-4.173-.992-4.962-.614-5.323-.205-5.324.205-5.126.614-4.83.992-4.552 1.354-4.42 1.67-4.501 1.936-4.683 2.142-4.732 2.283-4.337 2.347-3.369 3.197-1.298 3.086.312 1.464 1.25.426.246 2.503 1.478.662.395 1.559 1.232.393.312.772.625 1.402 1.1 1.448 1.134 1.764 1.232 1.228 1.134 1.181.904M28.045 1.033l.945.411 1.795.772.441.592 1.921.97 1.874 1.133 1.795 1.249 1.654 1.265.472.279L40.99 8.92l.394.246"/>
    <path d="m30.785 2.218.363.197 2.015 1.134.425.23 1.59 1.035 1.15.756.788.542 1.842 1.298"/>
  </g>
</svg>
