<svg xmlns="http://www.w3.org/2000/svg" fill="none" overflow="visible" preserveAspectRatio="none" style="display:block" viewBox="0 0 210 162.417"><g fill="#242222"><path d="M136.461 110.036v-5.137h41.286v5.137zM124.42 74.996V67.72h4.026v7.276l6.306-3.638 2.037 3.493-6.306 3.638 6.306 3.638-2.037 3.492-6.306-3.638v7.276h-4.026v-7.276l-6.306 3.638-1.989-3.492 6.258-3.638-6.258-3.638 1.989-3.493zM185.173 74.996V67.72h4.026v7.276l6.306-3.638 2.037 3.493-6.306 3.638 6.306 3.638-2.037 3.492-6.306-3.638v7.276h-4.026v-7.276l-6.306 3.638-1.989-3.492 6.258-3.638-6.258-3.638 1.989-3.493zM205.738 162.417q-5.38 0-7.978-2.267-2.6-2.267-2.6-7.465v-16.684h-4.503v-6.649h4.503v-7.918h8.916v7.918H210v6.649h-5.924v15.717q0 2.267.998 3.173 1.027.876 3.022.877.604 0 1.058-.031.453-.06.846-.121v6.468q-.726.121-1.813.212a22 22 0 0 1-2.449.121M174.456 162.416q-4.956 0-8.523-2.025-3.566-2.055-5.501-5.833-1.904-3.779-1.904-8.946v-.031q0-5.167 1.904-8.946 1.935-3.808 5.41-5.863 3.507-2.085 8.251-2.085 4.746 0 8.191 2.025 3.476 1.994 5.349 5.651 1.905 3.657 1.905 8.553v2.721H162.85v-5.562h22.517l-4.201 5.199v-3.385q0-2.841-.877-4.745-.876-1.935-2.448-2.902-1.54-.966-3.596-.967-2.056 0-3.657.998-1.572.997-2.479 2.931-.876 1.904-.876 4.685v3.415q0 2.69.876 4.594.907 1.904 2.569 2.932 1.662.997 3.959.997 1.814 0 3.144-.574 1.33-.575 2.176-1.451t1.148-1.783l.061-.181h8.1l-.091.332q-.363 1.783-1.421 3.597t-2.871 3.324q-1.783 1.512-4.382 2.418-2.57.907-6.045.907M125.281 161.751v-32.4h8.825v5.32h.182q1.269-2.781 3.748-4.383t6.135-1.601q5.35 0 8.251 3.233 2.931 3.204 2.931 8.916v20.915h-8.825V142.65q0-3.174-1.511-4.896-1.48-1.753-4.443-1.753-1.964 0-3.415.906-1.45.877-2.267 2.479-.786 1.601-.786 3.747v18.618zM103.973 161.751v-32.4h8.674v5.531h.181q.725-2.931 2.69-4.563t4.836-1.632q.725 0 1.39.09.665.091 1.148.242v7.767q-.543-.211-1.39-.332a10.3 10.3 0 0 0-1.813-.151q-2.176 0-3.718.846a5.65 5.65 0 0 0-2.357 2.448q-.816 1.602-.816 3.899v18.255zM85.566 162.416q-4.958 0-8.523-2.025-3.567-2.055-5.5-5.833-1.905-3.779-1.905-8.946v-.031q0-5.167 1.904-8.946 1.935-3.808 5.41-5.863 3.506-2.085 8.251-2.085t8.19 2.025q3.476 1.994 5.35 5.651 1.904 3.657 1.904 8.553v2.721H73.96v-5.562h22.516l-4.2 5.199v-3.385q0-2.841-.877-4.745-.876-1.935-2.448-2.902-1.542-.966-3.597-.967-2.055 0-3.657.998-1.571.997-2.478 2.931-.877 1.904-.877 4.685v3.415q0 2.69.877 4.594.906 1.904 2.569 2.932 1.662.997 3.96.997 1.813 0 3.142-.574 1.33-.575 2.176-1.451t1.149-1.783l.06-.181h8.1l-.09.332q-.363 1.783-1.421 3.597t-2.871 3.324q-1.784 1.512-4.383 2.418-2.568.907-6.044.907M63.35 162.417q-5.38 0-7.979-2.267t-2.599-7.465v-16.684H48.27v-6.649h4.503v-7.918h8.916v7.918h5.924v6.649h-5.924v15.717q0 2.267.997 3.173 1.028.876 3.023.877.604 0 1.058-.031.453-.06.846-.121v6.468a23 23 0 0 1-1.814.212q-1.057.12-2.448.121M16.05 161.751v-32.4h8.825v5.32h.181q1.27-2.781 3.748-4.383t6.135-1.601q5.35 0 8.251 3.233 2.932 3.204 2.932 8.916v20.915h-8.825V142.65q0-3.174-1.511-4.896-1.482-1.753-4.443-1.753-1.965 0-3.416.906-1.45.877-2.266 2.479-.786 1.601-.786 3.747v18.618zM1.662 161.752V118.14h9.128v43.612zM80.698 103.754v-32.4h8.675v5.531h.18q.726-2.931 2.69-4.563 1.965-1.632 4.836-1.632.726 0 1.39.09.666.09 1.15.242v7.768q-.545-.212-1.391-.333-.846-.15-1.813-.151-2.176 0-3.718.846A5.65 5.65 0 0 0 90.34 81.6q-.816 1.602-.816 3.9v18.254zM57.305 104.418q-3.567 0-6.075-1.45-2.478-1.482-3.808-4.201-1.3-2.721-1.3-6.498V71.354h8.825v19.071q0 3.174 1.481 4.926 1.512 1.753 4.473 1.753 1.995 0 3.416-.906 1.45-.907 2.236-2.509.816-1.632.816-3.717V71.354h8.825v32.399H67.37v-5.35h-.181q-1.239 2.812-3.718 4.414-2.478 1.6-6.165 1.601M21.338 104.51q-6.468 0-11.213-2.75-4.714-2.75-7.284-7.798Q.303 88.885.302 81.963v-.06q0-6.951 2.57-11.999 2.568-5.046 7.283-7.767 4.745-2.75 11.183-2.75 6.468 0 11.182 2.75t7.284 7.798q2.57 5.016 2.57 11.968v.06q0 6.922-2.57 12-2.568 5.046-7.284 7.797-4.684 2.75-11.182 2.75m0-7.737q3.627 0 6.256-1.813 2.63-1.844 4.05-5.169t1.42-7.828v-.06q0-4.564-1.45-7.858-1.42-3.324-4.08-5.108-2.63-1.813-6.196-1.813-3.567 0-6.226 1.783-2.63 1.783-4.08 5.108-1.42 3.294-1.421 7.888v.06q0 4.534 1.42 7.859 1.452 3.324 4.08 5.138 2.63 1.813 6.227 1.813M87.199 45.758V2.146h8.825v43.612zM73.446 45.758V2.146h8.825v43.612zM59.724 45.758v-32.4h8.825v32.4zm4.412-36.57q-1.995 0-3.355-1.36t-1.36-3.234q0-1.904 1.36-3.234Q62.141 0 64.136 0t3.355 1.36q1.36 1.33 1.36 3.234 0 1.874-1.36 3.234t-3.355 1.36M51.653 46.423q-5.38 0-7.98-2.267-2.598-2.266-2.599-7.465V20.008h-4.503v-6.65h4.503V5.44h8.916v7.919h5.924v6.649H49.99v15.716q0 2.267.998 3.174 1.027.876 3.022.876.605 0 1.058-.03.453-.06.846-.121v6.468q-.726.12-1.813.211-1.059.12-2.448.121M17.59 46.513q-5.168 0-9.037-1.51Q4.714 43.46 2.51 40.62.303 37.749.03 33.729L0 33.245h8.614l.06.333a5.5 5.5 0 0 0 1.511 2.931q1.239 1.21 3.204 1.904 1.964.666 4.443.665 2.538 0 4.352-.665 1.844-.695 2.84-1.934 1.029-1.269 1.028-2.931v-.03q0-2.207-1.753-3.446-1.722-1.27-5.802-2.116l-4.594-.906q-6.438-1.3-9.702-4.383T.937 14.658v-.03q0-3.99 2.146-6.952 2.146-2.992 5.893-4.624Q12.724 1.39 17.56 1.39q5.047 0 8.704 1.572 3.687 1.57 5.743 4.442 2.055 2.872 2.266 6.68l.03.574H25.69l-.03-.363q-.243-1.722-1.3-2.931-1.058-1.24-2.81-1.904-1.725-.666-3.99-.665-2.328 0-4.02.695-1.692.665-2.6 1.843-.875 1.18-.876 2.75v.031q0 2.055 1.753 3.325 1.753 1.268 5.501 2.024l4.624.937q6.861 1.36 10.034 4.322 3.204 2.932 3.204 8.07v.03q0 4.2-2.116 7.284-2.085 3.053-6.044 4.745-3.93 1.662-9.43 1.662"/></g></svg>