<?xml version="1.0" standalone="no"?>
<!DOCTYPE svg PUBLIC "-//W3C//DTD SVG 1.1//EN" "http://www.w3.org/Graphics/SVG/1.1/DTD/svg11.dtd" >
<svg xmlns="http://www.w3.org/2000/svg" xmlns:xlink="http://www.w3.org/1999/xlink" version="1.1">
<metadata>
Created by FontForge 20201107 at Fri Dec 22 20:03:08 2006
 By Unknown
2000 Albert-Jan Pool, published by Fontshop International for the FontFont library.
</metadata>
<defs>
<font id="DIN-BoldItalic" horiz-adv-x="516" >
  <font-face 
    font-family="DIN-BoldItalic"
    font-weight="500"
    font-style="italic"
    font-stretch="normal"
    units-per-em="1000"
    panose-1="0 0 0 0 0 0 0 0 0 0"
    ascent="800"
    descent="-200"
    x-height="521"
    cap-height="712"
    bbox="-161 -203 1107 1006"
    underline-thickness="82"
    underline-position="-176"
    stemh="102"
    stemv="123"
    unicode-range="U+0020-FB02"
  />
<missing-glyph horiz-adv-x="1000" 
 />
    <glyph glyph-name=".notdef" horiz-adv-x="1000" 
 />
    <glyph glyph-name="space" unicode=" " horiz-adv-x="220" 
 />
    <glyph glyph-name="exclam" unicode="!" horiz-adv-x="330" 
d="M348 712l-126 -490h-93l66 490h153zM225 133l-26 -133h-131l26 133h131z" />
    <glyph glyph-name="quotedbl" unicode="&#x22;" horiz-adv-x="441" 
d="M468 712l-43 -211h-116l43 211h116zM272 712l-42 -211h-116l42 211h116z" />
    <glyph glyph-name="numbersign" unicode="#" horiz-adv-x="666" 
d="M675 538l-23 -114h-82l-41 -116h70l-23 -114h-87l-68 -194h-132l68 194h-114l-68 -194h-132l68 194h-67l23 114h84l41 116h-71l23 114h87l63 180h132l-63 -180h114l63 180h132l-63 -180h66zM437 424h-114l-41 -116h114z" />
    <glyph glyph-name="dollar" unicode="$" horiz-adv-x="594" 
d="M608 630l-93 -81c-31 37 -69 50 -115 52l-34 -185l26 -7c118 -29 161 -84 161 -179c0 -167 -137 -228 -253 -236l-21 -108h-97l21 110c-92 5 -153 33 -207 97l96 85c36 -43 84 -64 146 -66l37 192c-2 0 -23 6 -23 6c-123 30 -158 101 -158 168c0 126 89 228 245 240
l17 88h97l-17 -91c71 -6 131 -34 172 -85zM331 602c-60 -8 -106 -53 -106 -107c0 -41 35 -58 73 -67zM420 213c0 53 -30 68 -78 79l-33 -181c66 10 111 50 111 102z" />
    <glyph glyph-name="percent" unicode="%" horiz-adv-x="816" 
d="M763 257c0 -9 -1 -21 -3 -32l-17 -93c-18 -94 -76 -138 -160 -138c-60 0 -118 34 -118 111c0 9 1 21 3 32l18 93c18 94 75 137 159 137c60 0 118 -33 118 -110zM710 712l-463 -712h-100l463 712h100zM392 608c0 -9 -1 -21 -3 -32l-17 -93c-18 -94 -76 -138 -160 -138
c-60 0 -118 34 -118 111c0 9 1 21 3 32l17 93c18 94 76 137 160 137c60 0 118 -33 118 -110zM674 246c0 19 -9 41 -41 41c-35 0 -52 -26 -58 -58l-18 -93c-1 -8 -2 -13 -2 -21c0 -19 8 -41 40 -41c35 0 52 26 58 58l18 94c1 8 3 12 3 20zM303 597c0 19 -9 41 -41 41
c-35 0 -52 -26 -58 -58l-18 -93c-1 -8 -2 -13 -2 -21c0 -19 8 -41 40 -41c35 0 52 26 58 58l18 94c1 8 3 12 3 20z" />
    <glyph glyph-name="ampersand" unicode="&#x26;" horiz-adv-x="690" 
d="M638 365c-19 -91 -54 -160 -116 -220l94 -145h-150l-39 61c-44 -35 -108 -67 -191 -67c-95 0 -194 46 -194 177c0 124 75 183 168 239c-25 42 -44 76 -44 124c0 73 43 184 203 184c139 0 160 -99 160 -149c0 -60 -40 -110 -99 -148l-58 -37l87 -141c30 31 49 73 60 122
h119zM409 564c0 31 -18 49 -47 49c-50 0 -70 -43 -70 -78c0 -22 12 -46 27 -68c7 4 32 20 32 20c35 22 58 43 58 77zM367 154l-104 168c-59 -35 -96 -74 -96 -133c0 -49 34 -84 84 -84c41 0 82 19 116 49z" />
    <glyph glyph-name="quoteright" unicode="&#x2019;" horiz-adv-x="258" 
d="M285 712l-24 -124l-150 -104l45 228h129z" />
    <glyph glyph-name="parenleft" unicode="(" horiz-adv-x="319" 
d="M358 714c-21 -18 -48 -42 -63 -62c-13 -18 -25 -43 -32 -79l-85 -424c-4 -22 -8 -42 -8 -60c0 -24 9 -54 48 -100l-94 -83c-63 77 -78 117 -78 170c0 16 4 46 10 77l85 426c9 43 18 86 46 126c25 35 61 68 101 101z" />
    <glyph glyph-name="parenright" unicode=")" horiz-adv-x="319" 
d="M313 636c0 -16 -4 -46 -10 -77l-85 -426c-9 -43 -18 -86 -46 -126c-25 -35 -61 -68 -101 -101l-70 92c21 18 48 42 63 62c13 18 25 43 32 79l85 424c4 22 8 42 8 60c0 24 -9 54 -48 100l94 83c63 -77 78 -117 78 -170z" />
    <glyph glyph-name="asterisk" unicode="*" horiz-adv-x="470" 
d="M479 538l-116 -35l93 -76l-57 -64l-86 83l-20 -119l-84 16l28 118l-112 -43l-28 80l116 35l-94 76l57 64l87 -82l19 118l84 -16l-27 -118l111 43z" />
    <glyph glyph-name="plus" unicode="+" 
d="M485 335l-23 -116h-153l-33 -164h-116l33 164h-152l23 116h152l33 164h116l-33 -164h153z" />
    <glyph glyph-name="comma" unicode="," horiz-adv-x="271" 
d="M184 142l-39 -197l-157 -110l62 307h134z" />
    <glyph glyph-name="hyphen" unicode="-" horiz-adv-x="405" 
d="M367 343l-23 -115h-293l23 115h293z" />
    <glyph glyph-name="period" unicode="." horiz-adv-x="271" 
d="M184 148l-29 -148h-141l30 148h140z" />
    <glyph glyph-name="slash" unicode="/" horiz-adv-x="385" 
d="M496 786l-442 -860h-120l443 860h119z" />
    <glyph glyph-name="zero" unicode="0" 
d="M517 547c0 -13 -2 -34 -5 -49l-57 -290c-32 -164 -141 -214 -237 -214c-108 0 -178 71 -178 171c0 13 2 34 5 49l58 290c32 164 141 214 237 214c108 0 177 -71 177 -171zM394 538c0 51 -34 69 -65 69c-41 0 -87 -20 -103 -99l-58 -299c-2 -11 -5 -24 -5 -35
c0 -51 34 -69 65 -69c41 0 87 20 103 99l59 299c2 11 4 24 4 35z" />
    <glyph glyph-name="one" unicode="1" 
d="M451 712l-142 -712h-124l114 570l-162 -117l28 143l162 116h124z" />
    <glyph glyph-name="two" unicode="2" 
d="M519 541c0 -97 -66 -155 -107 -197l-228 -233h262l-23 -111h-420l23 111l308 313c41 42 60 68 60 111c0 46 -25 72 -68 72c-45 0 -87 -24 -103 -93h-125c24 136 111 204 241 204c111 0 180 -64 180 -177z" />
    <glyph glyph-name="three" unicode="3" 
d="M511 549c0 -75 -32 -146 -109 -185c44 -25 63 -61 63 -127c0 -136 -103 -243 -236 -243c-125 0 -202 67 -202 169c0 13 1 23 3 36h122c-1 -8 -2 -12 -2 -22c0 -40 26 -72 80 -72c63 0 111 60 111 127c0 47 -26 78 -80 78h-19l21 108h20c60 0 104 59 104 117
c0 46 -27 72 -67 72c-44 0 -88 -30 -102 -87h-125c31 135 119 198 244 198c106 0 174 -74 174 -169z" />
    <glyph glyph-name="four" unicode="4" 
d="M487 712l-328 -491h141l27 132h118l-26 -132h65l-24 -117h-63l-21 -104h-118l20 104h-281l23 117l329 491h138z" />
    <glyph glyph-name="five" unicode="5" 
d="M542 712l-22 -111h-273l-31 -158c31 25 62 33 102 33c110 0 159 -79 159 -162c0 -23 -3 -52 -7 -74c-13 -67 -35 -136 -83 -184c-37 -37 -89 -62 -163 -62c-114 0 -179 72 -179 166c0 5 0 21 2 36h119c-1 -7 -1 -14 -1 -20c0 -40 18 -71 66 -71c68 0 97 57 112 135
c4 23 7 42 7 58c0 41 -14 73 -64 73c-48 0 -78 -27 -96 -59h-112l80 400h384z" />
    <glyph glyph-name="six" unicode="6" 
d="M468 712l-203 -300c14 4 25 6 42 6c94 0 159 -72 159 -184c0 -137 -93 -240 -229 -240c-144 0 -201 101 -201 189c0 72 26 122 82 207l213 322h137zM342 230c0 56 -31 88 -79 88c-69 0 -103 -65 -103 -124c0 -56 30 -89 78 -89c66 0 104 62 104 125z" />
    <glyph glyph-name="seven" unicode="7" 
d="M571 712l-22 -111l-334 -601h-137l333 601h-180l-22 -109h-118l43 220h437z" />
    <glyph glyph-name="eight" unicode="8" 
d="M520 534c0 -77 -47 -145 -109 -176c28 -22 59 -60 59 -131c0 -127 -87 -233 -244 -233c-107 0 -197 58 -197 186c0 82 41 154 122 195c-26 23 -52 60 -52 123c0 121 92 220 231 220c110 0 190 -71 190 -184zM395 531c0 41 -24 76 -71 76c-60 0 -101 -53 -101 -113
c0 -41 24 -75 71 -75c60 0 101 52 101 112zM344 226c0 46 -28 85 -79 85c-64 0 -111 -52 -111 -121c0 -46 29 -85 80 -85c64 0 110 51 110 121z" />
    <glyph glyph-name="nine" unicode="9" 
d="M522 529c0 -72 -26 -122 -82 -207l-214 -322h-136l203 300c-14 -4 -25 -6 -42 -6c-94 0 -159 72 -159 184c0 137 93 240 229 240c144 0 201 -101 201 -189zM398 518c0 56 -31 89 -79 89c-66 0 -103 -62 -103 -125c0 -56 31 -88 79 -88c69 0 103 65 103 124z" />
    <glyph glyph-name="colon" unicode=":" horiz-adv-x="294" 
d="M261 419l-29 -148h-141l30 148h140zM209 148l-30 -148h-141l30 148h141z" />
    <glyph glyph-name="semicolon" unicode=";" horiz-adv-x="294" 
d="M262 419l-30 -148h-141l30 148h141zM205 142l-39 -197l-158 -110l62 307h135z" />
    <glyph glyph-name="less" unicode="&#x3c;" 
d="M492 532l-27 -138l-264 -109l222 -117l-25 -127l-354 199l22 106z" />
    <glyph glyph-name="equal" unicode="=" 
d="M508 448l-23 -115h-422l24 115h421zM467 238l-24 -115h-421l24 115h421z" />
    <glyph glyph-name="greater" unicode="&#x3e;" 
d="M481 329l-22 -106l-426 -185l27 138l264 109l-222 117l26 127z" />
    <glyph glyph-name="question" unicode="?" horiz-adv-x="497" 
d="M518 559c0 -68 -28 -116 -74 -166l-89 -99c-11 -12 -24 -32 -28 -51l-5 -21h-124l7 31c8 38 22 70 55 105l88 94c25 27 45 56 45 94c0 33 -21 61 -59 61c-53 0 -85 -32 -95 -83h-125c24 136 120 194 239 194c86 0 165 -59 165 -159zM312 133l-26 -133h-131l26 133h131z
" />
    <glyph glyph-name="at" unicode="@" horiz-adv-x="722" 
d="M718 541c0 -20 -5 -54 -9 -76l-93 -465h-113l9 46c-37 -38 -73 -52 -118 -52c-94 0 -140 64 -140 134c0 27 5 57 14 102c18 89 31 145 79 190c36 34 80 47 125 47c51 0 86 -19 109 -51l10 53c3 15 5 30 5 43c0 28 -7 48 -21 64c-19 21 -47 30 -85 30h-118
c-47 0 -77 -9 -104 -33c-33 -28 -44 -62 -52 -104l-59 -295c-3 -13 -5 -27 -5 -44c0 -19 8 -36 26 -57l-97 -84c-38 43 -49 83 -49 118c0 22 3 48 6 63l59 300c17 88 43 143 83 183c43 43 108 63 196 63h147c75 0 124 -23 154 -56c32 -35 41 -80 41 -119zM552 297
c0 35 -16 67 -59 67c-61 0 -88 -43 -107 -134c-5 -23 -8 -45 -8 -66c0 -35 16 -67 59 -67c61 0 88 42 107 133c5 23 8 46 8 67z" />
    <glyph glyph-name="A" unicode="A" horiz-adv-x="607" 
d="M552 0h-134l-15 130h-241l-67 -130h-141l388 712h105zM393 238l-34 274l-143 -274h177z" />
    <glyph glyph-name="B" unicode="B" horiz-adv-x="626" 
d="M614 547c0 -65 -26 -141 -116 -186c41 -26 68 -59 68 -125c0 -143 -104 -236 -240 -236h-298l143 712h258c131 0 185 -79 185 -165zM480 525c0 33 -14 70 -74 70h-126l-36 -175h127c78 0 109 59 109 105zM433 230c0 42 -24 73 -75 73h-137l-37 -186h138
c69 0 111 49 111 113z" />
    <glyph glyph-name="C" unicode="C" horiz-adv-x="592" 
d="M598 498h-132c-1 58 -28 104 -92 104c-43 0 -71 -16 -96 -41c-29 -29 -47 -82 -71 -205c-12 -60 -21 -115 -21 -150c0 -61 41 -96 95 -96c70 0 113 51 133 104h136c-48 -147 -153 -220 -278 -220c-136 0 -219 89 -219 202c0 30 6 78 22 160c27 137 44 217 108 281
c57 57 130 81 198 81c146 0 217 -96 217 -220z" />
    <glyph glyph-name="D" unicode="D" horiz-adv-x="626" 
d="M614 513c0 -31 -5 -63 -23 -154c-34 -174 -53 -230 -114 -289c-48 -46 -115 -70 -196 -70h-253l143 712h233c118 0 210 -61 210 -199zM481 502c0 64 -39 94 -100 94h-101l-96 -480h100c42 0 76 12 104 39c29 28 45 69 71 204c16 82 22 120 22 143z" />
    <glyph glyph-name="E" unicode="E" horiz-adv-x="578" 
d="M615 712l-23 -116h-312l-36 -179h269l-23 -116h-269l-37 -185h318l-23 -116h-451l143 712h444z" />
    <glyph glyph-name="F" unicode="F" horiz-adv-x="560" 
d="M615 712l-23 -116h-312l-37 -186h267l-23 -116h-268l-59 -294h-132l143 712h444z" />
    <glyph glyph-name="G" unicode="G" horiz-adv-x="616" 
d="M603 495h-132c-1 65 -35 107 -94 107c-41 0 -75 -19 -98 -42c-35 -35 -49 -84 -73 -204c-13 -63 -20 -115 -20 -150c0 -72 50 -96 96 -96c63 0 129 47 147 143l6 31h-125l21 110h256l-19 -102c-19 -101 -44 -163 -99 -218c-52 -52 -122 -80 -196 -80
c-144 0 -220 96 -220 202c0 41 8 95 21 160c33 171 51 223 108 280c53 53 124 82 201 82c153 0 220 -107 220 -223z" />
    <glyph glyph-name="H" unicode="H" horiz-adv-x="651" 
d="M664 712l-143 -712h-132l61 302h-229l-61 -302h-132l143 712h132l-58 -294h229l58 294h132z" />
    <glyph glyph-name="I" unicode="I" horiz-adv-x="290" 
d="M303 712l-143 -712h-132l143 712h132z" />
    <glyph glyph-name="J" unicode="J" horiz-adv-x="485" 
d="M507 712l-98 -487c-39 -193 -176 -231 -260 -231c-87 0 -139 26 -179 77l95 81c21 -27 47 -42 87 -42c46 0 108 26 127 123l96 479h132z" />
    <glyph glyph-name="K" unicode="K" horiz-adv-x="636" 
d="M702 712l-281 -297l163 -415h-144l-125 329l-113 -110l-43 -219h-131l143 712h131l-63 -310l299 310h164z" />
    <glyph glyph-name="L" unicode="L" horiz-adv-x="550" 
d="M494 116l-23 -116h-443l143 712h132l-119 -596h310z" />
    <glyph glyph-name="M" unicode="M" horiz-adv-x="770" 
d="M783 712l-143 -712h-132l85 421l-179 -263h-89l-80 265l-85 -423h-132l143 712h124l101 -380l258 380h129z" />
    <glyph glyph-name="N" unicode="N" horiz-adv-x="677" 
d="M690 712l-143 -712h-112l-185 445l-90 -445h-132l143 712h112l186 -446l89 446h132z" />
    <glyph glyph-name="O" unicode="O" horiz-adv-x="611" 
d="M597 516c0 -32 -7 -80 -22 -160c-27 -137 -46 -218 -109 -281c-53 -53 -130 -81 -199 -81c-135 0 -214 92 -214 202c0 32 7 80 22 160c27 137 46 218 109 281c53 53 129 81 198 81c135 0 215 -92 215 -202zM463 506c0 63 -42 96 -90 96c-38 0 -72 -16 -97 -43
c-27 -29 -43 -71 -69 -203c-12 -61 -21 -115 -21 -150c0 -63 43 -96 91 -96c38 0 72 16 97 43c27 29 43 71 69 203c12 61 20 115 20 150z" />
    <glyph glyph-name="P" unicode="P" horiz-adv-x="597" 
d="M615 524c0 -127 -92 -248 -263 -248h-137l-55 -276h-132l143 712h253c121 0 191 -77 191 -188zM482 513c0 45 -21 82 -80 82h-122l-41 -202h118c86 0 125 66 125 120z" />
    <glyph glyph-name="Q" unicode="Q" horiz-adv-x="611" 
d="M597 516c0 -32 -7 -80 -22 -160c-24 -125 -42 -200 -91 -261l49 -65l-79 -70l-52 69c-41 -23 -90 -35 -135 -35c-135 0 -214 92 -214 202c0 32 7 80 22 160c27 137 46 218 109 281c53 53 129 81 198 81c135 0 215 -92 215 -202zM463 506c0 63 -42 96 -90 96
c-38 0 -72 -16 -97 -43c-27 -29 -43 -71 -69 -203c-12 -61 -21 -115 -21 -150c0 -63 43 -96 91 -96c19 0 37 5 52 14l-52 67l80 70l44 -57c15 30 27 73 42 152c12 61 20 115 20 150z" />
    <glyph glyph-name="R" unicode="R" horiz-adv-x="625" 
d="M615 521c0 -88 -55 -181 -166 -218l98 -303h-145l-83 288h-100l-59 -288h-132l143 712h250c144 0 194 -91 194 -191zM483 514c0 51 -29 81 -83 81h-120l-40 -197h120c90 0 123 69 123 116z" />
    <glyph glyph-name="S" unicode="S" horiz-adv-x="563" 
d="M577 632l-93 -81c-31 37 -70 52 -126 52c-83 0 -132 -56 -132 -108c0 -45 36 -60 76 -70l59 -14c118 -29 161 -84 161 -185c0 -160 -135 -232 -285 -232c-112 0 -180 27 -240 98l96 84c38 -45 88 -65 156 -65c79 0 141 45 141 103c0 51 -30 68 -75 79l-59 15
c-117 29 -162 96 -162 169c0 136 105 241 279 241c83 0 157 -28 204 -86z" />
    <glyph glyph-name="T" unicode="T" horiz-adv-x="544" 
d="M605 712l-23 -117h-175l-119 -595h-132l119 595h-179l23 117h486z" />
    <glyph glyph-name="U" unicode="U" horiz-adv-x="635" 
d="M658 712l-94 -468c-35 -175 -153 -250 -285 -250c-121 0 -217 77 -217 203c0 19 4 46 7 61l91 454h132l-93 -462c-2 -12 -5 -29 -5 -44c0 -49 27 -95 94 -95c76 0 128 52 147 146l91 455h132z" />
    <glyph glyph-name="V" unicode="V" horiz-adv-x="552" 
d="M642 712l-363 -712h-104l-81 712h130l48 -472l228 472h142z" />
    <glyph glyph-name="W" unicode="W" horiz-adv-x="846" 
d="M929 712l-318 -712h-111l-37 438l-216 -438h-110l-42 712h136l16 -455l216 455h99l35 -455l192 455h140z" />
    <glyph glyph-name="X" unicode="X" horiz-adv-x="579" 
d="M647 712l-264 -352l143 -360h-148l-88 253l-180 -253h-154l280 370l-132 342h147l79 -234l163 234h154z" />
    <glyph glyph-name="Y" unicode="Y" horiz-adv-x="550" 
d="M635 712l-286 -425l-58 -287h-132l59 292l-129 420h140l76 -295l184 295h146z" />
    <glyph glyph-name="Z" unicode="Z" horiz-adv-x="526" 
d="M575 712l-21 -103l-382 -492h290l-24 -117h-450l22 105l379 490h-275l23 117h438z" />
    <glyph glyph-name="bracketleft" unicode="[" horiz-adv-x="359" 
d="M421 786l-22 -111h-116l-128 -638h126l-22 -111h-249l171 860h240z" />
    <glyph glyph-name="backslash" unicode="\" horiz-adv-x="378" 
d="M313 -74h-112l-98 847h113z" />
    <glyph glyph-name="bracketright" unicode="]" horiz-adv-x="359" 
d="M389 786l-171 -860h-240l22 110h117l128 640h-126l22 110h248z" />
    <glyph glyph-name="asciicircum" unicode="^" horiz-adv-x="581" 
d="M548 389h-124l-62 198l-141 -198h-135l236 330h122z" />
    <glyph glyph-name="underscore" unicode="_" 
d="M448 -91l-17 -82h-517l17 82h517z" />
    <glyph glyph-name="quoteleft" unicode="&#x2018;" horiz-adv-x="258" 
d="M306 817l-45 -228h-129l24 123z" />
    <glyph glyph-name="a" unicode="a" horiz-adv-x="509" 
d="M469 382c0 -14 -2 -32 -5 -46l-68 -336h-119l9 46c-29 -29 -69 -51 -126 -51c-91 0 -149 58 -149 137c0 51 17 93 47 123c39 38 92 54 152 54h124l7 31c2 9 3 17 3 27c0 35 -25 56 -77 56c-51 0 -86 -20 -112 -49l-64 83c42 43 96 70 193 70c87 0 185 -34 185 -145z
M317 224h-95c-56 0 -89 -34 -89 -80c0 -29 21 -49 66 -49c34 0 62 13 81 32c16 16 26 40 31 66z" />
    <glyph glyph-name="b" unicode="b" horiz-adv-x="533" 
d="M501 376c0 -22 -5 -63 -15 -115c-18 -98 -36 -169 -84 -217c-34 -34 -82 -50 -133 -50c-59 0 -98 21 -121 59l-10 -53h-120l142 712h124l-47 -236c24 28 65 51 121 51c78 0 143 -45 143 -151zM373 344c0 31 -9 72 -63 72c-74 0 -97 -60 -116 -155c-5 -27 -11 -62 -11 -84
c0 -31 9 -72 63 -72c74 0 97 61 116 156c5 27 11 61 11 83z" />
    <glyph glyph-name="c" unicode="c" horiz-adv-x="458" 
d="M463 455l-93 -82c-20 27 -41 43 -72 43c-27 0 -52 -10 -74 -33c-27 -28 -46 -73 -55 -122c-4 -23 -7 -43 -7 -67c0 -55 26 -89 74 -89c35 0 62 15 91 44l69 -89c-44 -41 -105 -66 -172 -66c-99 0 -187 63 -187 186c0 25 3 54 8 81c39 212 159 266 265 266
c76 0 122 -32 153 -72z" />
    <glyph glyph-name="d" unicode="d" horiz-adv-x="533" 
d="M555 712l-142 -712h-120l11 50c-35 -40 -80 -56 -129 -56c-110 0 -141 80 -141 146c0 34 7 75 16 121c21 107 43 175 83 215s85 51 132 51s92 -16 118 -56l48 241h124zM352 345c0 31 -8 71 -62 71c-74 0 -97 -60 -116 -155c-5 -27 -11 -62 -11 -84c0 -31 8 -72 62 -72
c74 0 97 61 116 156c5 27 11 62 11 84z" />
    <glyph glyph-name="e" unicode="e" horiz-adv-x="524" 
d="M487 341c0 -35 -7 -77 -16 -118h-312c-2 -14 -4 -24 -4 -37c0 -51 28 -87 89 -87c50 0 88 19 124 53l65 -82c-54 -51 -125 -76 -203 -76c-91 0 -193 46 -193 183c0 175 86 350 265 350c111 0 185 -73 185 -186zM369 341c0 54 -29 84 -74 84c-53 0 -97 -35 -120 -119h191
c2 11 3 24 3 35z" />
    <glyph glyph-name="f" unicode="f" horiz-adv-x="325" 
d="M392 720l-21 -105h-44c-30 0 -50 -16 -57 -51l-12 -59h92l-19 -95h-92l-82 -410h-124l82 410h-51l19 95h51l15 72c18 91 74 143 170 143h73z" />
    <glyph glyph-name="g" unicode="g" horiz-adv-x="527" 
d="M511 521l-100 -501c-30 -152 -130 -217 -250 -217c-76 0 -129 21 -173 71l86 75c16 -18 38 -41 87 -41c69 0 113 46 127 113l11 53c-27 -32 -64 -52 -116 -52c-77 0 -144 49 -144 147c0 25 5 62 13 106c18 100 38 160 78 200c39 39 86 52 133 52c54 0 94 -20 118 -59
l10 53h120zM348 347c0 43 -20 69 -62 69c-64 0 -92 -48 -110 -142c-6 -32 -9 -56 -9 -72c0 -39 16 -69 62 -69c64 0 92 48 110 142c6 32 9 56 9 72z" />
    <glyph glyph-name="h" unicode="h" horiz-adv-x="544" 
d="M502 383c0 -21 -4 -41 -7 -58l-65 -325h-124l63 317c2 11 4 24 4 34c0 45 -30 65 -61 65c-35 0 -91 -18 -107 -100l-63 -316h-124l142 712h124l-46 -232c33 30 76 47 128 47c63 0 136 -40 136 -144z" />
    <glyph glyph-name="i" unicode="i" horiz-adv-x="262" 
d="M285 710l-21 -103h-127l20 103h128zM246 521l-104 -521h-124l104 521h124z" />
    <glyph glyph-name="j" unicode="j" horiz-adv-x="262" 
d="M285 710l-21 -103h-127l20 103h128zM246 521l-113 -569c-18 -91 -76 -147 -168 -147h-77l21 105h45c31 0 50 21 56 53l112 558h124z" />
    <glyph glyph-name="k" unicode="k" horiz-adv-x="534" 
d="M557 521l-218 -217l138 -304h-142l-90 227l-71 -66l-32 -161h-124l142 712h124l-80 -403l206 212h147z" />
    <glyph glyph-name="l" unicode="l" horiz-adv-x="311" 
d="M280 712l-111 -555c-2 -9 -3 -14 -3 -22c0 -19 11 -30 38 -30h51l-21 -105h-68c-72 0 -125 42 -125 113c0 16 1 29 4 43l111 556h124z" />
    <glyph glyph-name="m" unicode="m" horiz-adv-x="832" 
d="M789 383c0 -23 -3 -42 -6 -58l-65 -325h-124l63 317c2 11 4 24 4 34c0 45 -31 65 -62 65c-35 0 -90 -18 -106 -100l-63 -316h-124l63 317c2 11 4 24 4 34c0 45 -30 65 -61 65c-35 0 -91 -18 -107 -100l-63 -316h-124l104 521h119l-10 -50c34 35 83 56 137 56
c37 0 85 -17 113 -67c36 38 80 67 163 67c70 0 145 -46 145 -144z" />
    <glyph glyph-name="n" unicode="n" horiz-adv-x="544" 
d="M502 383c0 -21 -4 -41 -7 -58l-65 -325h-124l63 317c2 11 4 24 4 34c0 45 -30 65 -61 65c-35 0 -91 -18 -107 -100l-63 -316h-124l104 521h119l-10 -50c34 35 83 56 137 56c61 0 134 -40 134 -144z" />
    <glyph glyph-name="o" unicode="o" horiz-adv-x="514" 
d="M477 355c0 -32 -6 -70 -10 -94c-20 -107 -47 -163 -93 -207c-39 -38 -95 -60 -160 -60c-79 0 -177 46 -177 173c0 32 7 70 11 94c20 107 47 162 93 206c39 38 95 60 160 60c79 0 176 -45 176 -172zM354 342c0 50 -27 74 -65 74c-25 0 -49 -10 -65 -26
c-25 -24 -40 -64 -53 -129c-9 -47 -11 -70 -11 -82c0 -50 28 -74 66 -74c25 0 48 10 64 26c25 24 40 65 53 130c9 47 11 69 11 81z" />
    <glyph glyph-name="p" unicode="p" horiz-adv-x="533" 
d="M501 383c0 -25 -2 -53 -16 -122c-21 -107 -43 -176 -83 -216s-85 -51 -132 -51s-92 16 -118 56l-48 -241h-124l142 712h120l-11 -50c35 40 80 56 129 56c110 0 141 -79 141 -144zM372 345c0 31 -8 71 -62 71c-74 0 -97 -60 -116 -155c-5 -27 -11 -62 -11 -84
c0 -31 8 -72 62 -72c74 0 97 61 116 156c5 27 11 62 11 84z" />
    <glyph glyph-name="q" unicode="q" horiz-adv-x="533" 
d="M517 521l-142 -712h-124l46 237c-24 -28 -65 -52 -121 -52c-78 0 -142 46 -142 152c0 22 5 63 15 115c18 98 36 169 84 217c34 34 82 49 133 49c59 0 97 -21 120 -59l11 53h120zM351 344c0 31 -8 72 -62 72c-74 0 -97 -60 -116 -155c-5 -27 -11 -62 -11 -84
c0 -31 8 -72 62 -72c74 0 97 61 116 156c5 27 11 61 11 83z" />
    <glyph glyph-name="r" unicode="r" horiz-adv-x="430" 
d="M474 478l-107 -95c-9 11 -25 32 -57 32c-49 0 -93 -40 -105 -100l-63 -315h-124l104 521h120l-11 -51c29 35 78 57 132 57c50 0 83 -16 111 -49z" />
    <glyph glyph-name="s" unicode="s" horiz-adv-x="475" 
d="M459 463l-85 -75c-24 25 -62 37 -99 37c-63 0 -91 -31 -91 -63c0 -22 16 -34 48 -39l67 -11c93 -15 126 -63 126 -135c0 -52 -22 -93 -56 -126c-42 -41 -114 -57 -181 -57c-93 0 -155 28 -201 78l89 78c26 -30 61 -50 120 -50c71 0 106 34 106 65c0 28 -19 38 -49 43
l-68 11c-95 16 -125 69 -125 118c0 48 18 95 53 130c39 39 99 60 173 60s128 -18 173 -64z" />
    <glyph glyph-name="t" unicode="t" horiz-adv-x="337" 
d="M341 507l-19 -96h-86l-51 -256c-2 -8 -2 -14 -2 -19c0 -21 13 -32 40 -32h45l-21 -104h-64c-72 0 -126 42 -126 113c0 18 2 32 4 43l51 255h-53l19 96h53l31 154h124l-31 -154h86z" />
    <glyph glyph-name="u" unicode="u" horiz-adv-x="544" 
d="M527 521l-103 -521h-119l9 50c-34 -35 -83 -56 -137 -56c-61 0 -133 41 -133 145c0 21 3 40 6 57l65 325h124l-63 -317c-2 -11 -4 -24 -4 -34c0 -45 31 -65 62 -65c35 0 90 18 106 100l63 316h124z" />
    <glyph glyph-name="v" unicode="v" horiz-adv-x="469" 
d="M518 521l-285 -521h-98l-78 521h123l37 -336l168 336h133z" />
    <glyph glyph-name="w" unicode="w" horiz-adv-x="719" 
d="M765 521l-249 -521h-98l-41 331l-171 -331h-100l-49 521h124l18 -325l165 325h90l38 -325l142 325h131z" />
    <glyph glyph-name="x" unicode="x" horiz-adv-x="502" 
d="M531 521l-210 -259l123 -262h-143l-65 163l-121 -163h-153l221 269l-118 252h143l61 -155l111 155h151z" />
    <glyph glyph-name="y" unicode="y" horiz-adv-x="464" 
d="M515 521l-325 -605c-12 -23 -27 -45 -43 -61c-33 -33 -72 -46 -124 -46h-48l23 112h28c36 0 52 17 71 54l33 62l-74 484h123l38 -336l167 336h131z" />
    <glyph glyph-name="z" unicode="z" horiz-adv-x="461" 
d="M470 521l-19 -95l-279 -315h223l-22 -111h-386l19 95l277 315h-208l22 111h373z" />
    <glyph glyph-name="braceleft" unicode="{" horiz-adv-x="435" 
d="M495 786l-22 -111h-46c-61 0 -72 -18 -84 -76l-29 -143c-13 -66 -48 -89 -86 -98c29 -14 48 -38 48 -78c0 -8 -1 -19 -3 -29l-27 -136c-3 -16 -5 -28 -5 -40c0 -31 18 -38 57 -38h57l-22 -111h-96c-94 0 -125 65 -125 119c0 16 2 27 4 37l30 147c4 22 4 39 -2 51
c-7 15 -21 28 -51 28h-42l23 110h43c22 0 40 7 54 19s22 32 28 60l28 141c9 45 23 85 58 115c27 23 65 33 112 33h98z" />
    <glyph glyph-name="bar" unicode="|" horiz-adv-x="333" 
d="M334 786l-172 -860h-123l171 860h124z" />
    <glyph glyph-name="braceright" unicode="}" horiz-adv-x="435" 
d="M424 404l-23 -110h-43c-22 0 -40 -7 -54 -19s-22 -32 -28 -60l-28 -141c-9 -45 -23 -85 -58 -115c-27 -23 -65 -33 -112 -33h-98l22 111h46c61 0 72 18 84 76l29 143c13 66 48 89 86 98c-29 14 -48 38 -48 78c0 8 1 19 3 29l27 136c3 16 5 28 5 40c0 31 -18 38 -57 38
h-57l22 111h96c94 0 125 -65 125 -119c0 -16 -2 -27 -4 -37l-30 -147c-4 -22 -4 -39 2 -51c7 -15 21 -28 51 -28h42z" />
    <glyph glyph-name="asciitilde" unicode="~" horiz-adv-x="576" 
d="M549 277c-77 -71 -131 -77 -169 -77c-41 0 -71 11 -107 32c-29 17 -51 24 -76 24c-27 0 -55 -7 -94 -43l-65 84c77 71 132 77 170 77c41 0 71 -11 107 -32c29 -17 50 -24 75 -24c27 0 56 6 95 42z" />
    <glyph glyph-name="exclamdown" unicode="&#xa1;" horiz-adv-x="330" 
d="M264 521l-26 -133h-131l26 133h131zM203 299l-66 -490h-153l126 490h93z" />
    <glyph glyph-name="cent" unicode="&#xa2;" horiz-adv-x="484" 
d="M507 547l-91 -75c-14 20 -33 37 -59 42l-59 -299c28 3 53 18 77 42l68 -83c-46 -42 -85 -63 -154 -73l-20 -101h-96l21 105c-69 17 -134 87 -134 194c0 146 76 310 236 328l17 85h96l-17 -86c54 -12 90 -44 115 -79zM287 513c-35 -9 -65 -76 -80 -139
c-9 -39 -18 -78 -14 -110c3 -26 20 -41 37 -45z" />
    <glyph glyph-name="sterling" unicode="&#xa3;" horiz-adv-x="551" 
d="M580 643l-98 -84c-19 30 -44 42 -81 42c-84 0 -116 -59 -129 -121l-17 -86h109l-19 -94h-108l-37 -183h284l-23 -117h-416l60 300h-58l18 94h58l19 91c28 134 100 233 270 233c74 0 131 -27 168 -75z" />
    <glyph glyph-name="fraction" unicode="&#x2044;" horiz-adv-x="200" 
d="M401 712l-462 -712h-100l463 712h99z" />
    <glyph glyph-name="yen" unicode="&#xa5;" horiz-adv-x="550" 
d="M635 712l-186 -276h74l-19 -94h-118l-37 -55l-10 -46h145l-19 -94h-144l-30 -147h-132l30 147h-143l19 94h142l11 51l-15 50h-118l18 94h70l-84 276h140l76 -295l184 295h146z" />
    <glyph glyph-name="florin" unicode="&#x192;" horiz-adv-x="406" 
d="M469 719l-20 -103h-64c-30 0 -51 -17 -62 -48l-62 -171h93l-20 -94h-107l-181 -494h-124l181 494h-64l18 94h81l63 174c40 110 101 148 201 148h67z" />
    <glyph glyph-name="section" unicode="&#xa7;" horiz-adv-x="504" 
d="M484 575c0 -8 -1 -18 -2 -24h-111c4 45 -23 61 -57 61c-50 0 -76 -33 -76 -73c0 -28 16 -45 51 -59l53 -21c52 -21 101 -72 101 -148c0 -81 -34 -153 -116 -197c32 -23 54 -54 54 -117c0 -94 -60 -194 -215 -194c-90 0 -160 55 -160 143c0 9 0 19 1 29h115
c-4 -36 16 -63 60 -63c40 0 80 23 80 80c0 26 -14 51 -53 67l-52 21c-57 23 -101 73 -101 148c0 81 40 158 118 197c-35 29 -51 62 -51 114c0 88 66 179 203 179c104 0 158 -64 158 -143zM328 297c0 49 -33 65 -61 65c-25 0 -41 -9 -55 -21c-17 -15 -31 -37 -38 -72
c-2 -10 -3 -17 -3 -27c0 -51 35 -65 60 -65s42 8 56 20c17 15 31 37 38 72c2 10 3 18 3 28z" />
    <glyph glyph-name="currency" unicode="&#xa4;" horiz-adv-x="650" 
d="M642 498h-132c-1 58 -28 104 -92 104c-41 0 -69 -14 -96 -41c-18 -18 -31 -43 -43 -88h142l-16 -78h-146l-15 -75h147l-14 -78h-144c-2 -14 -2 -26 -2 -36c0 -61 40 -96 94 -96c63 0 110 45 133 104h136c-45 -137 -143 -220 -279 -220c-135 0 -218 89 -218 202
c0 16 2 29 5 46h-69l14 78h66l15 75h-66l14 78h69c18 70 39 121 82 164c57 57 131 81 199 81c146 0 216 -96 216 -220z" />
    <glyph glyph-name="quotesingle" unicode="'" horiz-adv-x="246" 
d="M273 712l-42 -211h-117l42 211h117z" />
    <glyph glyph-name="quotedblleft" unicode="&#x201c;" horiz-adv-x="458" 
d="M506 817l-46 -228h-128l24 123zM306 817l-46 -228h-128l24 123z" />
    <glyph glyph-name="guillemotleft" unicode="&#xab;" horiz-adv-x="597" 
d="M588 521l-33 -160l-111 -96l73 -96l-27 -142l-189 249zM323 521l-33 -160l-111 -96l73 -96l-27 -142l-189 249z" />
    <glyph glyph-name="guilsinglleft" unicode="&#x2039;" horiz-adv-x="333" 
d="M323 521l-33 -160l-111 -96l73 -96l-27 -142l-189 249z" />
    <glyph glyph-name="guilsinglright" unicode="&#x203a;" horiz-adv-x="333" 
d="M305 273l-287 -246l32 160l111 96l-73 97l28 141z" />
    <glyph glyph-name="fi" unicode="&#xfb01;" horiz-adv-x="576" 
d="M599 712l-20 -103h-127l20 103h127zM557 507l-101 -507h-124l101 507h124zM392 720l-21 -105h-44c-30 0 -50 -16 -57 -51l-12 -57h92l-19 -95h-92l-82 -412h-124l82 412h-51l19 95h51l15 70c19 91 74 143 170 143h73z" />
    <glyph glyph-name="fl" unicode="&#xfb02;" horiz-adv-x="629" 
d="M597 712l-111 -555c-2 -9 -3 -14 -3 -22c0 -19 12 -30 39 -30h51l-22 -105h-67c-72 0 -126 42 -126 113c0 16 1 29 4 43l111 556h124zM392 720l-21 -105h-44c-30 0 -50 -16 -57 -51l-12 -59h92l-19 -95h-92l-82 -410h-124l82 410h-51l19 95h51l15 72
c18 91 74 143 170 143h73z" />
    <glyph glyph-name="endash" unicode="&#x2013;" 
d="M486 343l-23 -115h-420l22 115h421z" />
    <glyph glyph-name="dagger" unicode="&#x2020;" horiz-adv-x="550" 
d="M550 526l-22 -110h-159l-83 -416h-124l83 416h-159l22 110h159l37 186h124l-37 -186h159z" />
    <glyph glyph-name="daggerdbl" unicode="&#x2021;" horiz-adv-x="550" 
d="M550 526l-22 -110h-159l-62 -305h161l-22 -110h-161l-38 -192h-123l38 192h-158l22 110h158l61 305h-159l22 110h159l37 186h124l-37 -186h159z" />
    <glyph glyph-name="periodcentered" unicode="&#xb7;" horiz-adv-x="271" 
d="M226 356l-28 -141h-141l28 141h141z" />
    <glyph glyph-name="paragraph" unicode="&#xb6;" horiz-adv-x="636" 
d="M648 712l-181 -903h-123l157 787h-95l-158 -787h-123l103 518c-64 5 -145 65 -145 176c0 103 72 209 253 209h312z" />
    <glyph glyph-name="bullet" unicode="&#x2022;" horiz-adv-x="469" 
d="M404 334c0 -90 -64 -154 -154 -154s-154 64 -154 154s64 154 154 154s154 -64 154 -154z" />
    <glyph glyph-name="quotesinglbase" unicode="&#x201a;" horiz-adv-x="258" 
d="M168 124l-25 -124l-149 -104l45 228h129z" />
    <glyph glyph-name="quotedblbase" unicode="&#x201e;" horiz-adv-x="458" 
d="M368 124l-25 -124l-150 -104l45 228h130zM167 124l-24 -124l-149 -104l45 228h128z" />
    <glyph glyph-name="quotedblright" unicode="&#x201d;" horiz-adv-x="458" 
d="M485 712l-25 -124l-149 -104l45 228h129zM285 712l-25 -124l-149 -104l45 228h129z" />
    <glyph glyph-name="guillemotright" unicode="&#xbb;" horiz-adv-x="597" 
d="M570 273l-287 -246l32 160l111 96l-73 97l28 141zM305 273l-287 -246l32 160l112 96l-74 97l28 141z" />
    <glyph glyph-name="ellipsis" unicode="&#x2026;" horiz-adv-x="804" 
d="M715 136l-26 -136h-135l28 136h133zM446 136l-28 -136h-134l27 136h135zM175 136l-26 -136h-135l28 136h133z" />
    <glyph glyph-name="perthousand" unicode="&#x2030;" horiz-adv-x="1161" 
d="M1107 257c0 -9 -1 -21 -3 -32l-17 -93c-18 -94 -76 -138 -160 -138c-60 0 -118 34 -118 111c0 9 1 21 3 32l18 93c18 94 75 137 159 137c60 0 118 -33 118 -110zM763 257c0 -9 -1 -21 -3 -32l-17 -93c-18 -94 -76 -138 -160 -138c-60 0 -118 34 -118 111c0 9 1 21 3 32
l18 93c18 94 75 137 159 137c60 0 118 -33 118 -110zM710 712l-463 -712h-100l463 712h100zM392 608c0 -9 -1 -21 -3 -32l-17 -93c-18 -94 -76 -138 -160 -138c-60 0 -118 34 -118 111c0 9 1 21 3 32l17 93c18 94 76 137 160 137c60 0 118 -33 118 -110zM1018 246
c0 19 -9 41 -41 41c-35 0 -52 -26 -58 -58l-18 -93c-1 -8 -2 -13 -2 -21c0 -19 8 -41 40 -41c35 0 53 26 59 58l17 94c1 8 3 12 3 20zM674 246c0 19 -9 41 -41 41c-35 0 -52 -26 -58 -58l-18 -93c-1 -8 -2 -13 -2 -21c0 -19 8 -41 40 -41c35 0 52 26 58 58l18 94
c1 8 3 12 3 20zM303 597c0 19 -9 41 -41 41c-35 0 -52 -26 -58 -58l-18 -93c-1 -8 -2 -13 -2 -21c0 -19 8 -41 40 -41c35 0 52 26 58 58l18 94c1 8 3 12 3 20z" />
    <glyph glyph-name="questiondown" unicode="&#xbf;" horiz-adv-x="497" 
d="M345 521l-25 -133h-131l26 133h130zM386 -3c-24 -136 -119 -194 -238 -194c-86 0 -165 59 -165 159c0 68 28 117 74 167l89 98c11 12 24 32 28 51l4 22h124l-7 -32c-8 -38 -21 -70 -54 -105l-89 -94c-25 -27 -44 -56 -44 -94c0 -33 21 -61 59 -61c53 0 85 32 95 83h124z
" />
    <glyph glyph-name="grave" unicode="`" horiz-adv-x="475" 
d="M356 601h-79l-74 167h128z" />
    <glyph glyph-name="acute" unicode="&#xb4;" horiz-adv-x="475" 
d="M478 768l-139 -167h-84l92 167h131z" />
    <glyph glyph-name="circumflex" unicode="&#x2c6;" horiz-adv-x="475" 
d="M483 604h-92l-59 94l-99 -94h-101l159 169h100z" />
    <glyph glyph-name="tilde" unicode="&#x2dc;" horiz-adv-x="475" 
d="M495 670c-36 -35 -68 -52 -111 -52c-35 0 -57 10 -77 22s-33 18 -53 18c-25 0 -44 -13 -62 -31l-45 59c36 35 68 52 111 52c35 0 57 -10 77 -22s33 -17 53 -17c25 0 44 13 62 31z" />
    <glyph glyph-name="macron" unicode="&#xaf;" horiz-adv-x="475" 
d="M480 711l-17 -82h-301l16 82h302z" />
    <glyph glyph-name="breve" unicode="&#x2d8;" horiz-adv-x="475" 
d="M491 742c-21 -107 -82 -151 -175 -151c-86 0 -139 56 -139 119c0 14 1 24 2 32h83c-3 -43 25 -65 62 -65c41 0 71 18 83 65h84z" />
    <glyph glyph-name="dotaccent" unicode="&#x2d9;" horiz-adv-x="475" 
d="M392 708l-21 -103h-126l20 103h127z" />
    <glyph glyph-name="dieresis" unicode="&#xa8;" horiz-adv-x="475" 
d="M489 725l-24 -122h-106l24 122h106zM279 725l-24 -122h-105l24 122h105z" />
    <glyph glyph-name="ring" unicode="&#x2da;" horiz-adv-x="475" 
d="M453 711c0 -72 -58 -127 -127 -127s-126 55 -126 127s57 126 126 126s127 -53 127 -126zM385 711c0 32 -28 58 -59 58s-58 -26 -58 -58s27 -59 58 -59s59 27 59 59z" />
    <glyph glyph-name="cedilla" unicode="&#xb8;" horiz-adv-x="475" 
d="M247 -60l-69 -143h-116l92 143h93z" />
    <glyph glyph-name="hungarumlaut" unicode="&#x2dd;" horiz-adv-x="475" 
d="M544 768l-140 -167h-83l92 167h131zM347 768l-140 -167h-84l93 167h131z" />
    <glyph glyph-name="ogonek" unicode="&#x2db;" horiz-adv-x="475" 
d="M224 -202h-113l-13 144h90z" />
    <glyph glyph-name="caron" unicode="&#x2c7;" horiz-adv-x="475" 
d="M517 773l-159 -169h-100l-92 169h92l59 -94l99 94h101z" />
    <glyph glyph-name="emdash" unicode="&#x2014;" horiz-adv-x="975" 
d="M939 348l-24 -119h-864l23 119h865z" />
    <glyph glyph-name="AE" unicode="&#xc6;" horiz-adv-x="940" 
d="M977 712l-23 -115h-313l-35 -181h268l-23 -115h-269l-37 -186h317l-23 -115h-449l32 163h-212l-112 -163h-146l496 712h529zM509 596l-223 -323h159z" />
    <glyph glyph-name="ordfeminine" unicode="&#xaa;" horiz-adv-x="431" 
d="M439 601c0 -11 -2 -26 -4 -37l-54 -268h-96l7 36c-22 -24 -54 -40 -101 -40c-71 0 -118 47 -118 112c0 39 14 73 40 98c29 28 69 41 119 41h99l4 24c2 10 3 15 3 22c0 27 -19 44 -61 44c-41 0 -68 -15 -89 -38l-52 67c35 34 78 55 155 55c70 0 148 -28 148 -116zM317 475
h-76c-45 0 -71 -28 -71 -62c0 -25 18 -40 54 -40c27 0 48 9 64 25c12 12 20 31 24 52z" />
    <glyph glyph-name="Lslash" unicode="&#x141;" horiz-adv-x="567" 
d="M511 116l-22 -116h-444l50 245l-70 -41l23 117l70 40l70 351h132l-53 -266l138 81l-24 -118l-137 -80l-43 -213h310z" />
    <glyph glyph-name="Oslash" unicode="&#xd8;" horiz-adv-x="614" 
d="M632 756l-75 -115c27 -35 42 -78 42 -125c0 -32 -7 -80 -22 -160c-27 -137 -46 -218 -109 -281c-53 -53 -131 -81 -200 -81c-42 0 -81 9 -111 26l-42 -64h-96l75 115c-27 34 -42 79 -42 125c0 32 7 80 22 160c27 137 46 218 109 281c53 53 131 81 200 81
c43 0 80 -9 111 -26l42 64h96zM430 583c-16 13 -36 19 -57 19c-38 0 -72 -16 -97 -43c-27 -29 -43 -71 -69 -203c-12 -61 -21 -115 -21 -150v-2zM463 506v3l-243 -380c16 -12 36 -19 57 -19c38 0 72 16 97 43c27 29 43 71 69 203c12 61 20 115 20 150z" />
    <glyph glyph-name="OE" unicode="&#x152;" horiz-adv-x="918" 
d="M955 712l-23 -117h-311l-35 -177h267l-24 -117h-266l-37 -184h316l-23 -117h-434l9 48c-30 -32 -71 -54 -132 -54c-117 0 -209 80 -209 202c0 32 7 80 22 160c27 137 46 218 109 281c58 58 134 81 197 81c59 0 106 -23 129 -60l11 54h434zM464 505c0 62 -40 97 -90 97
c-38 0 -73 -16 -98 -43c-27 -29 -42 -71 -69 -203c-14 -71 -21 -118 -21 -149c0 -62 40 -97 90 -97c38 0 72 16 97 43c27 29 43 71 70 203c14 71 21 118 21 149z" />
    <glyph glyph-name="ordmasculine" unicode="&#xba;" horiz-adv-x="439" 
d="M441 580c0 -25 -4 -57 -8 -76c-15 -80 -36 -128 -75 -165c-32 -30 -75 -48 -127 -48c-63 0 -141 38 -141 139c0 25 4 55 8 74c15 80 35 128 74 165c32 30 76 48 128 48c63 0 141 -36 141 -137zM342 568c0 41 -22 59 -52 59c-24 0 -41 -9 -52 -21
c-21 -21 -32 -56 -41 -102c-7 -35 -8 -52 -8 -64c0 -41 21 -59 51 -59c24 0 42 10 53 22c21 21 31 55 40 101c7 35 9 52 9 64z" />
    <glyph glyph-name="ae" unicode="&#xe6;" horiz-adv-x="802" 
d="M765 342c0 -35 -7 -78 -16 -119h-313c-2 -14 -3 -24 -3 -37c0 -51 28 -87 89 -87c50 0 88 19 124 53l64 -82c-54 -51 -124 -76 -202 -76c-60 0 -122 22 -159 73c-51 -55 -107 -73 -172 -73c-104 0 -166 51 -166 138c0 49 15 91 45 121c38 38 92 54 154 54h124l7 31
c2 8 3 19 3 29c0 35 -25 56 -77 56c-51 0 -86 -20 -112 -49l-64 83c42 43 96 70 193 70c54 0 111 -13 146 -56c38 35 89 56 149 56c111 0 186 -70 186 -185zM647 342c0 53 -29 83 -74 83c-53 0 -98 -34 -121 -118h191c2 11 4 22 4 35zM317 223h-95c-56 0 -89 -33 -89 -79
c0 -29 21 -49 66 -49c34 0 62 13 81 32c16 16 26 39 31 65z" />
    <glyph glyph-name="dotlessi" unicode="&#x131;" horiz-adv-x="262" 
d="M246 521l-104 -521h-124l104 521h124z" />
    <glyph glyph-name="lslash" unicode="&#x142;" horiz-adv-x="322" 
d="M315 525l-23 -111l-64 -37l-44 -220c-2 -9 -3 -14 -3 -22c0 -19 12 -30 39 -30h51l-22 -105h-67c-72 0 -126 42 -126 113c0 16 1 29 4 43l30 147l-59 -34l22 111l58 33l60 299h123l-45 -224z" />
    <glyph glyph-name="oslash" unicode="&#xf8;" horiz-adv-x="517" 
d="M526 565l-78 -104c20 -26 33 -61 33 -106c0 -32 -7 -70 -11 -94c-20 -107 -47 -163 -93 -207c-39 -38 -96 -60 -161 -60c-32 0 -71 7 -100 27l-48 -65h-76l78 105c-20 26 -32 61 -32 106c0 32 7 70 11 94c20 107 47 162 93 206c39 38 96 60 161 60c32 0 68 -7 99 -26
l48 64h76zM334 402c-11 9 -26 14 -43 14c-25 0 -49 -10 -65 -26c-25 -24 -41 -64 -54 -129c-9 -47 -11 -70 -11 -82c0 -3 1 -6 1 -9zM358 342c0 3 -1 7 -1 10l-172 -233c11 -9 26 -14 43 -14c25 0 49 10 65 26c25 24 41 65 54 130c9 47 11 69 11 81z" />
    <glyph glyph-name="oe" unicode="&#x153;" horiz-adv-x="823" 
d="M786 341c0 -35 -7 -77 -16 -118h-313c-2 -14 -4 -24 -4 -37c0 -51 29 -87 90 -87c50 0 87 19 123 53l65 -82c-54 -51 -124 -76 -202 -76c-54 0 -115 16 -152 69c-39 -45 -96 -69 -163 -69c-79 0 -177 46 -177 173c0 32 7 70 11 94c20 107 47 162 93 206
c39 38 95 60 160 60c55 0 107 -21 138 -68c43 48 100 68 161 68c111 0 186 -71 186 -186zM667 341c0 54 -29 84 -74 84c-53 0 -97 -35 -120 -119h191c2 11 3 24 3 35zM354 342c0 50 -27 74 -65 74c-25 0 -49 -10 -65 -26c-25 -24 -40 -64 -53 -129c-9 -47 -11 -70 -11 -82
c0 -50 28 -74 66 -74c25 0 48 10 64 26c25 24 40 65 53 130c9 47 11 69 11 81z" />
    <glyph glyph-name="germandbls" unicode="&#xdf;" horiz-adv-x="547" 
d="M551 565c0 -50 -25 -109 -84 -140c29 -18 41 -43 41 -76c0 -7 -1 -18 -3 -28l-30 -160c-21 -112 -79 -161 -184 -161h-59l21 104h27c18 0 32 6 45 16s23 29 27 50l29 148c1 8 2 15 2 20c0 30 -18 41 -46 41h-31l20 97h29c46 0 71 39 71 77c0 14 -3 27 -12 37
c-10 12 -29 21 -58 21c-70 0 -98 -38 -110 -97l-103 -514h-125l105 524c30 149 120 194 247 194c106 0 181 -53 181 -153z" />
    <glyph glyph-name="eth" unicode="&#xf0;" horiz-adv-x="515" 
d="M484 658l-17 -86h-46l25 -79c21 -73 26 -108 26 -147c0 -25 -3 -57 -10 -92c-13 -65 -33 -150 -93 -205c-38 -34 -92 -55 -154 -55c-85 0 -173 49 -173 171c0 20 4 56 11 89c20 103 43 156 90 201c26 26 60 43 98 50c27 5 51 6 75 2l-21 65h-112l17 86h70l-19 62h128
l18 -62h87zM348 336c0 55 -33 67 -60 67c-25 0 -45 -9 -60 -23c-25 -23 -39 -66 -51 -126c-6 -31 -11 -60 -11 -82c0 -55 34 -68 61 -68c25 0 45 10 60 24c25 23 39 66 51 126c6 31 10 60 10 82z" />
    <glyph glyph-name="Scaron" unicode="&#x160;" horiz-adv-x="563" 
d="M577 632l-93 -81c-31 37 -70 52 -126 52c-83 0 -132 -56 -132 -108c0 -45 36 -60 76 -70l59 -14c118 -29 161 -84 161 -185c0 -160 -135 -232 -285 -232c-112 0 -180 27 -240 98l96 84c38 -45 88 -65 156 -65c79 0 141 45 141 103c0 51 -30 68 -75 79l-59 15
c-117 29 -162 96 -162 169c0 136 105 241 279 241c83 0 157 -28 204 -86zM572 950l-159 -169h-100l-92 169h92l59 -94l99 94h101z" />
    <glyph glyph-name="scaron" unicode="&#x161;" horiz-adv-x="475" 
d="M459 463l-85 -75c-24 25 -62 37 -99 37c-63 0 -91 -31 -91 -63c0 -22 16 -34 48 -39l67 -11c93 -15 126 -63 126 -135c0 -52 -22 -93 -56 -126c-42 -41 -114 -57 -181 -57c-93 0 -155 28 -201 78l89 78c26 -30 61 -50 120 -50c71 0 106 34 106 65c0 28 -19 38 -49 43
l-68 11c-95 16 -125 69 -125 118c0 48 18 95 53 130c39 39 99 60 173 60s128 -18 173 -64zM505 773l-159 -169h-100l-92 169h92l59 -94l99 94h101z" />
    <glyph glyph-name="Yacute" unicode="&#xdd;" horiz-adv-x="550" 
d="M635 712l-286 -425l-58 -287h-132l59 292l-129 420h140l76 -295l184 295h146zM518 945l-139 -167h-84l92 167h131z" />
    <glyph glyph-name="yacute" unicode="&#xfd;" horiz-adv-x="464" 
d="M515 521l-325 -605c-12 -23 -27 -45 -43 -61c-33 -33 -72 -46 -124 -46h-48l23 112h28c36 0 52 17 71 54l33 62l-74 484h123l38 -336l167 336h131zM464 768l-139 -167h-84l92 167h131z" />
    <glyph glyph-name="Thorn" unicode="&#xde;" horiz-adv-x="601" 
d="M588 390c0 -127 -93 -248 -264 -248h-136l-28 -142h-132l143 712h132l-27 -134h120c121 0 192 -77 192 -188zM455 379c0 45 -21 82 -80 82h-122l-41 -202h118c86 0 125 66 125 120z" />
    <glyph glyph-name="thorn" unicode="&#xfe;" horiz-adv-x="533" 
d="M501 383c0 -22 -2 -51 -16 -122c-22 -109 -43 -176 -83 -216s-86 -51 -131 -51c-56 0 -97 20 -118 54l-49 -239h-124l180 903h124l-47 -234c21 22 60 49 124 49c108 0 140 -80 140 -144zM372 344c0 31 -8 72 -62 72c-74 0 -97 -60 -116 -155c-5 -27 -11 -62 -11 -84
c0 -31 8 -72 62 -72c74 0 97 61 116 156c5 27 11 61 11 83z" />
    <glyph glyph-name="Zcaron" unicode="&#x17d;" horiz-adv-x="526" 
d="M575 712l-21 -103l-382 -492h290l-24 -117h-450l22 105l379 490h-275l23 117h438zM562 950l-159 -169h-100l-92 169h92l59 -94l99 94h101z" />
    <glyph glyph-name="zcaron" unicode="&#x17e;" horiz-adv-x="461" 
d="M470 521l-19 -95l-279 -315h223l-22 -111h-386l19 95l277 315h-208l22 111h373zM506 773l-159 -169h-100l-92 169h92l59 -94l99 94h101z" />
    <glyph glyph-name="onehalf" unicode="&#xbd;" horiz-adv-x="826" 
d="M798 321c0 -54 -33 -91 -74 -130l-118 -111h151l-16 -80h-263l17 80l177 169c25 24 36 41 36 65c0 20 -9 37 -34 37c-34 0 -46 -23 -50 -46h-89c13 69 54 126 148 126c74 0 115 -43 115 -110zM683 712l-462 -712h-99l462 712h99zM303 712l-85 -427h-90l64 321l-103 -75
l21 107l104 74h89z" />
    <glyph glyph-name="onequarter" unicode="&#xbc;" horiz-adv-x="800" 
d="M744 427l-192 -283h70l13 63h86l-13 -63h33l-16 -84h-34l-11 -60h-86l13 60h-170l16 84l192 283h99zM687 712l-462 -712h-99l462 712h99zM303 712l-85 -427h-90l64 321l-103 -75l21 107l104 74h89z" />
    <glyph glyph-name="onesuperior" unicode="&#xb9;" horiz-adv-x="278" 
d="M303 712l-85 -427h-90l64 321l-101 -73l22 107l101 72h89z" />
    <glyph glyph-name="threequarters" unicode="&#xbe;" horiz-adv-x="837" 
d="M780 427l-192 -283h71l12 63h86l-13 -63h33l-16 -84h-33l-12 -60h-85l12 60h-170l16 84l192 283h99zM726 712l-462 -712h-99l461 712h100zM374 605c0 -42 -16 -80 -63 -104c22 -17 33 -38 33 -79c0 -82 -59 -141 -150 -141c-88 0 -123 49 -123 98c0 14 0 23 2 32h89
c-4 -31 8 -50 38 -50c28 0 53 22 53 60c0 28 -13 44 -39 44h-12l16 76h9c43 0 56 34 56 58c0 26 -16 37 -33 37c-25 0 -44 -14 -50 -45h-90c17 90 72 125 150 125c68 0 114 -45 114 -111z" />
    <glyph glyph-name="threesuperior" unicode="&#xb3;" horiz-adv-x="349" 
d="M374 605c0 -42 -16 -80 -63 -104c22 -17 33 -38 33 -79c0 -82 -59 -141 -150 -141c-88 0 -123 49 -123 98c0 14 0 23 2 32h89c-4 -31 8 -50 38 -50c28 0 53 22 53 60c0 28 -13 44 -39 44h-12l16 76h9c43 0 56 34 56 58c0 26 -16 37 -33 37c-25 0 -44 -14 -50 -45h-90
c17 90 72 125 150 125c68 0 114 -45 114 -111z" />
    <glyph glyph-name="twosuperior" unicode="&#xb2;" horiz-adv-x="340" 
d="M368 606c0 -54 -33 -91 -74 -130l-117 -111h150l-16 -80h-262l16 80l177 169c25 24 36 41 36 65c0 20 -9 37 -34 37c-34 0 -45 -23 -49 -46h-90c13 69 54 126 148 126c74 0 115 -43 115 -110z" />
    <glyph glyph-name="brokenbar" unicode="&#xa6;" horiz-adv-x="336" 
d="M334 786l-70 -350h-124l70 350h124zM232 276l-70 -350h-123l69 350h124z" />
    <glyph glyph-name="minus" unicode="&#x2212;" 
d="M486 343l-22 -114h-421l23 114h420z" />
    <glyph glyph-name="multiply" unicode="&#xd7;" 
d="M504 422l-162 -141l107 -140l-90 -78l-106 142l-162 -141l-66 86l162 140l-107 141l91 78l106 -141l161 140z" />
    <glyph glyph-name="Adieresis" unicode="&#xc4;" horiz-adv-x="607" 
d="M552 0h-134l-15 130h-241l-67 -130h-141l388 712h105zM393 238l-34 274l-143 -274h177zM583 902l-24 -122h-106l24 122h106zM373 902l-24 -122h-105l24 122h105z" />
    <glyph glyph-name="Aring" unicode="&#xc5;" horiz-adv-x="607" 
d="M552 0h-134l-15 130h-241l-67 -130h-141l388 712h105zM393 238l-34 274l-143 -274h177zM528 880c0 -73 -58 -127 -127 -127c-70 0 -126 54 -126 127c0 72 56 126 126 126c69 0 127 -54 127 -126zM460 880c0 31 -28 58 -59 58s-58 -27 -58 -58c0 -32 27 -59 58 -59
s59 27 59 59z" />
    <glyph glyph-name="Ccedilla" unicode="&#xc7;" horiz-adv-x="592" 
d="M598 498h-132c-1 58 -28 104 -92 104c-43 0 -71 -16 -96 -41c-29 -29 -47 -82 -71 -205c-12 -60 -21 -115 -21 -150c0 -61 41 -96 95 -96c70 0 113 51 133 104h136c-48 -147 -153 -220 -278 -220c-136 0 -219 89 -219 202c0 30 6 78 22 160c27 137 44 217 108 281
c57 57 130 81 198 81c146 0 217 -96 217 -220zM315 -60l-69 -143h-116l92 143h93z" />
    <glyph glyph-name="Eacute" unicode="&#xc9;" horiz-adv-x="578" 
d="M615 712l-23 -116h-312l-36 -179h269l-23 -116h-269l-37 -185h318l-23 -116h-451l143 712h444zM538 945l-139 -167h-84l92 167h131z" />
    <glyph glyph-name="Ntilde" unicode="&#xd1;" horiz-adv-x="677" 
d="M690 712l-143 -712h-112l-185 445l-90 -445h-132l143 712h112l186 -446l89 446h132zM602 846c-36 -35 -68 -52 -111 -52c-34 0 -57 10 -77 22s-33 18 -53 18c-25 0 -44 -13 -62 -31l-45 59c37 35 68 52 111 52c35 0 57 -10 77 -22s33 -17 53 -17c25 0 44 13 62 31z" />
    <glyph glyph-name="Odieresis" unicode="&#xd6;" horiz-adv-x="611" 
d="M597 516c0 -32 -6 -80 -22 -160c-27 -137 -46 -218 -109 -281c-53 -53 -130 -81 -199 -81c-135 0 -214 92 -214 202c0 32 7 80 22 160c27 137 46 218 109 281c53 53 129 81 198 81c135 0 215 -92 215 -202zM463 506c0 63 -42 96 -90 96c-38 0 -72 -16 -97 -43
c-27 -29 -43 -71 -69 -203c-12 -61 -21 -115 -21 -150c0 -63 43 -96 91 -96c38 0 72 16 97 43c27 29 43 71 69 203c12 61 20 115 20 150zM583 902l-24 -122h-106l24 122h106zM373 902l-24 -122h-105l24 122h105z" />
    <glyph glyph-name="Udieresis" unicode="&#xdc;" horiz-adv-x="635" 
d="M658 712l-94 -468c-35 -175 -153 -250 -285 -250c-121 0 -217 77 -217 203c0 19 4 46 7 61l91 454h132l-93 -462c-2 -12 -5 -29 -5 -44c0 -49 27 -95 94 -95c76 0 128 52 147 146l91 455h132zM599 902l-24 -122h-106l24 122h106zM389 902l-24 -122h-105l24 122h105z" />
    <glyph glyph-name="aacute" unicode="&#xe1;" horiz-adv-x="509" 
d="M469 382c0 -14 -2 -32 -5 -46l-68 -336h-119l9 46c-29 -29 -69 -51 -126 -51c-91 0 -149 58 -149 137c0 51 17 93 47 123c39 38 92 54 152 54h124l7 31c2 9 3 17 3 27c0 35 -25 56 -77 56c-51 0 -86 -20 -112 -49l-64 83c42 43 96 70 193 70c87 0 185 -34 185 -145z
M317 224h-95c-56 0 -89 -34 -89 -80c0 -29 21 -49 66 -49c34 0 62 13 81 32c16 16 26 40 31 66zM484 768l-139 -167h-84l92 167h131z" />
    <glyph glyph-name="agrave" unicode="&#xe0;" horiz-adv-x="509" 
d="M469 382c0 -14 -2 -32 -5 -46l-68 -336h-119l9 46c-29 -29 -69 -51 -126 -51c-91 0 -149 58 -149 137c0 51 17 93 47 123c39 38 92 54 152 54h124l7 31c2 9 3 17 3 27c0 35 -25 56 -77 56c-51 0 -86 -20 -112 -49l-64 83c42 43 96 70 193 70c87 0 185 -34 185 -145z
M317 224h-95c-56 0 -89 -34 -89 -80c0 -29 21 -49 66 -49c34 0 62 13 81 32c16 16 26 40 31 66zM362 601h-79l-74 167h128z" />
    <glyph glyph-name="acircumflex" unicode="&#xe2;" horiz-adv-x="509" 
d="M469 382c0 -14 -2 -32 -5 -46l-68 -336h-119l9 46c-29 -29 -69 -51 -126 -51c-91 0 -149 58 -149 137c0 51 17 93 47 123c39 38 92 54 152 54h124l7 31c2 9 3 17 3 27c0 35 -25 56 -77 56c-51 0 -86 -20 -112 -49l-64 83c42 43 96 70 193 70c87 0 185 -34 185 -145z
M317 224h-95c-56 0 -89 -34 -89 -80c0 -29 21 -49 66 -49c34 0 62 13 81 32c16 16 26 40 31 66zM491 604h-92l-59 94l-99 -94h-101l159 169h100z" />
    <glyph glyph-name="adieresis" unicode="&#xe4;" horiz-adv-x="509" 
d="M469 382c0 -14 -2 -32 -5 -46l-68 -336h-119l9 46c-29 -29 -69 -51 -126 -51c-91 0 -149 58 -149 137c0 51 17 93 47 123c39 38 92 54 152 54h124l7 31c2 9 3 17 3 27c0 35 -25 56 -77 56c-51 0 -86 -20 -112 -49l-64 83c42 43 96 70 193 70c87 0 185 -34 185 -145z
M317 224h-95c-56 0 -89 -34 -89 -80c0 -29 21 -49 66 -49c34 0 62 13 81 32c16 16 26 40 31 66zM503 725l-24 -122h-106l24 122h106zM293 725l-24 -122h-105l24 122h105z" />
    <glyph glyph-name="atilde" unicode="&#xe3;" horiz-adv-x="509" 
d="M469 382c0 -14 -2 -32 -5 -46l-68 -336h-119l9 46c-29 -29 -69 -51 -126 -51c-91 0 -149 58 -149 137c0 51 17 93 47 123c39 38 92 54 152 54h124l7 31c2 9 3 17 3 27c0 35 -25 56 -77 56c-51 0 -86 -20 -112 -49l-64 83c42 43 96 70 193 70c87 0 185 -34 185 -145z
M317 224h-95c-56 0 -89 -34 -89 -80c0 -29 21 -49 66 -49c34 0 62 13 81 32c16 16 26 40 31 66zM501 669c-37 -35 -69 -52 -111 -52c-35 0 -57 10 -77 22c-20 11 -34 18 -53 18c-25 0 -44 -13 -62 -31l-45 59c36 35 68 52 111 52c34 0 57 -11 77 -22c19 -12 33 -17 53 -17
c24 0 43 12 62 31z" />
    <glyph glyph-name="aring" unicode="&#xe5;" horiz-adv-x="509" 
d="M469 382c0 -14 -2 -32 -5 -46l-68 -336h-119l9 46c-29 -29 -69 -51 -126 -51c-91 0 -149 58 -149 137c0 51 17 93 47 123c39 38 92 54 152 54h124l7 31c2 9 3 17 3 27c0 35 -25 56 -77 56c-51 0 -86 -20 -112 -49l-64 83c42 43 96 70 193 70c87 0 185 -34 185 -145z
M317 224h-95c-56 0 -89 -34 -89 -80c0 -29 21 -49 66 -49c34 0 62 13 81 32c16 16 26 40 31 66zM460 711c0 -72 -58 -127 -127 -127c-70 0 -126 55 -126 127s56 126 126 126c69 0 127 -53 127 -126zM392 711c0 32 -28 58 -59 58s-58 -26 -58 -58s27 -59 58 -59s59 27 59 59z
" />
    <glyph glyph-name="ccedilla" unicode="&#xe7;" horiz-adv-x="458" 
d="M463 455l-93 -82c-20 27 -41 43 -72 43c-27 0 -52 -10 -74 -33c-27 -28 -46 -73 -55 -122c-4 -23 -7 -43 -7 -67c0 -55 26 -89 74 -89c35 0 62 15 91 44l69 -89c-44 -41 -105 -66 -172 -66c-99 0 -187 63 -187 186c0 25 3 54 8 81c39 212 159 266 265 266
c76 0 122 -32 153 -72zM257 -60l-69 -143h-116l92 143h93z" />
    <glyph glyph-name="eacute" unicode="&#xe9;" horiz-adv-x="524" 
d="M487 341c0 -35 -7 -77 -16 -118h-312c-2 -14 -4 -24 -4 -37c0 -51 28 -87 89 -87c50 0 88 19 124 53l65 -82c-54 -51 -125 -76 -203 -76c-91 0 -193 46 -193 183c0 175 86 350 265 350c111 0 185 -73 185 -186zM369 341c0 54 -29 84 -74 84c-53 0 -97 -35 -120 -119h191
c2 11 3 24 3 35zM501 768l-139 -167h-84l92 167h131z" />
    <glyph glyph-name="egrave" unicode="&#xe8;" horiz-adv-x="524" 
d="M487 341c0 -35 -7 -77 -16 -118h-312c-2 -14 -4 -24 -4 -37c0 -51 28 -87 89 -87c50 0 88 19 124 53l65 -82c-54 -51 -125 -76 -203 -76c-91 0 -193 46 -193 183c0 175 86 350 265 350c111 0 185 -73 185 -186zM369 341c0 54 -29 84 -74 84c-53 0 -97 -35 -120 -119h191
c2 11 3 24 3 35zM379 601h-79l-74 167h128z" />
    <glyph glyph-name="ecircumflex" unicode="&#xea;" horiz-adv-x="524" 
d="M487 341c0 -35 -7 -77 -16 -118h-312c-2 -14 -4 -24 -4 -37c0 -51 28 -87 89 -87c50 0 88 19 124 53l65 -82c-54 -51 -125 -76 -203 -76c-91 0 -193 46 -193 183c0 175 86 350 265 350c111 0 185 -73 185 -186zM369 341c0 54 -29 84 -74 84c-53 0 -97 -35 -120 -119h191
c2 11 3 24 3 35zM506 604h-92l-59 94l-99 -94h-101l159 169h100z" />
    <glyph glyph-name="edieresis" unicode="&#xeb;" horiz-adv-x="524" 
d="M487 341c0 -35 -7 -77 -16 -118h-312c-2 -14 -4 -24 -4 -37c0 -51 28 -87 89 -87c50 0 88 19 124 53l65 -82c-54 -51 -125 -76 -203 -76c-91 0 -193 46 -193 183c0 175 86 350 265 350c111 0 185 -73 185 -186zM369 341c0 54 -29 84 -74 84c-53 0 -97 -35 -120 -119h191
c2 11 3 24 3 35zM513 725l-24 -122h-106l24 122h106zM303 725l-24 -122h-105l24 122h105z" />
    <glyph glyph-name="iacute" unicode="&#xed;" horiz-adv-x="262" 
d="M246 521l-104 -521h-124l104 521h124zM365 768l-139 -167h-84l92 167h131z" />
    <glyph glyph-name="igrave" unicode="&#xec;" horiz-adv-x="262" 
d="M246 521l-104 -521h-124l104 521h124zM243 601h-79l-74 167h128z" />
    <glyph glyph-name="icircumflex" unicode="&#xee;" horiz-adv-x="262" 
d="M246 521l-104 -521h-124l104 521h124zM370 604h-92l-59 94l-99 -94h-101l159 169h100z" />
    <glyph glyph-name="idieresis" unicode="&#xef;" horiz-adv-x="262" 
d="M246 521l-104 -521h-124l104 521h124zM377 725l-24 -122h-106l24 122h106zM167 725l-24 -122h-105l24 122h105z" />
    <glyph glyph-name="ntilde" unicode="&#xf1;" horiz-adv-x="544" 
d="M502 383c0 -21 -4 -41 -7 -58l-65 -325h-124l63 317c2 11 4 24 4 34c0 45 -30 65 -61 65c-35 0 -91 -18 -107 -100l-63 -316h-124l104 521h119l-10 -50c34 35 83 56 137 56c61 0 134 -40 134 -144zM527 669c-37 -35 -68 -52 -111 -52c-35 0 -57 10 -77 22
c-20 11 -33 18 -53 18c-25 0 -44 -13 -62 -31l-45 59c36 35 68 52 111 52c34 0 57 -11 77 -22c19 -12 33 -17 53 -17c25 0 43 12 62 31z" />
    <glyph glyph-name="oacute" unicode="&#xf3;" horiz-adv-x="514" 
d="M477 355c0 -32 -6 -70 -10 -94c-20 -107 -47 -163 -93 -207c-39 -38 -95 -60 -160 -60c-79 0 -177 46 -177 173c0 32 7 70 11 94c20 107 47 162 93 206c39 38 95 60 160 60c79 0 176 -45 176 -172zM354 342c0 50 -27 74 -65 74c-25 0 -49 -10 -65 -26
c-25 -24 -40 -64 -53 -129c-9 -47 -11 -70 -11 -82c0 -50 28 -74 66 -74c25 0 48 10 64 26c25 24 40 65 53 130c9 47 11 69 11 81zM495 768l-139 -167h-84l92 167h131z" />
    <glyph glyph-name="ograve" unicode="&#xf2;" horiz-adv-x="514" 
d="M340 601h-79l-74 167h128zM477 355c0 -32 -6 -70 -10 -94c-20 -107 -47 -163 -93 -207c-39 -38 -95 -60 -160 -60c-79 0 -177 46 -177 173c0 32 7 70 11 94c20 107 47 162 93 206c39 38 95 60 160 60c79 0 176 -45 176 -172zM354 342c0 50 -27 74 -65 74
c-25 0 -49 -10 -65 -26c-25 -24 -40 -64 -53 -129c-9 -47 -11 -70 -11 -82c0 -50 28 -74 66 -74c25 0 48 10 64 26c25 24 40 65 53 130c9 47 11 69 11 81z" />
    <glyph glyph-name="ocircumflex" unicode="&#xf4;" horiz-adv-x="514" 
d="M477 355c0 -32 -6 -70 -10 -94c-20 -107 -47 -163 -93 -207c-39 -38 -95 -60 -160 -60c-79 0 -177 46 -177 173c0 32 7 70 11 94c20 107 47 162 93 206c39 38 95 60 160 60c79 0 176 -45 176 -172zM354 342c0 50 -27 74 -65 74c-25 0 -49 -10 -65 -26
c-25 -24 -40 -64 -53 -129c-9 -47 -11 -70 -11 -82c0 -50 28 -74 66 -74c25 0 48 10 64 26c25 24 40 65 53 130c9 47 11 69 11 81zM500 604h-92l-59 94l-99 -94h-101l159 169h100z" />
    <glyph glyph-name="odieresis" unicode="&#xf6;" horiz-adv-x="514" 
d="M477 355c0 -32 -6 -70 -10 -94c-20 -107 -47 -163 -93 -207c-39 -38 -95 -60 -160 -60c-79 0 -177 46 -177 173c0 32 7 70 11 94c20 107 47 162 93 206c39 38 95 60 160 60c79 0 176 -45 176 -172zM354 342c0 50 -27 74 -65 74c-25 0 -49 -10 -65 -26
c-25 -24 -40 -64 -53 -129c-9 -47 -11 -70 -11 -82c0 -50 28 -74 66 -74c25 0 48 10 64 26c25 24 40 65 53 130c9 47 11 69 11 81zM508 725l-24 -122h-106l24 122h106zM298 725l-24 -122h-105l24 122h105z" />
    <glyph glyph-name="otilde" unicode="&#xf5;" horiz-adv-x="514" 
d="M477 355c0 -32 -6 -70 -10 -94c-20 -107 -47 -163 -93 -207c-39 -38 -95 -60 -160 -60c-79 0 -177 46 -177 173c0 32 7 70 11 94c20 107 47 162 93 206c39 38 95 60 160 60c79 0 176 -45 176 -172zM354 342c0 50 -27 74 -65 74c-25 0 -49 -10 -65 -26
c-25 -24 -40 -64 -53 -129c-9 -47 -11 -70 -11 -82c0 -50 28 -74 66 -74c25 0 48 10 64 26c25 24 40 65 53 130c9 47 11 69 11 81zM511 669c-36 -35 -68 -52 -111 -52c-35 0 -57 10 -77 22c-20 11 -33 18 -53 18c-25 0 -44 -13 -62 -31l-45 59c36 35 68 52 111 52
c35 0 57 -11 77 -22c20 -12 33 -17 53 -17c25 0 44 12 62 31z" />
    <glyph glyph-name="uacute" unicode="&#xfa;" horiz-adv-x="544" 
d="M527 521l-103 -521h-119l9 50c-34 -35 -83 -56 -137 -56c-61 0 -133 41 -133 145c0 21 3 40 6 57l65 325h124l-63 -317c-2 -11 -4 -24 -4 -34c0 -45 31 -65 62 -65c35 0 90 18 106 100l63 316h124zM503 768l-139 -167h-84l92 167h131z" />
    <glyph glyph-name="ugrave" unicode="&#xf9;" horiz-adv-x="544" 
d="M527 521l-103 -521h-119l9 50c-34 -35 -83 -56 -137 -56c-61 0 -133 41 -133 145c0 21 3 40 6 57l65 325h124l-63 -317c-2 -11 -4 -24 -4 -34c0 -45 31 -65 62 -65c35 0 90 18 106 100l63 316h124zM381 601h-79l-74 167h128z" />
    <glyph glyph-name="ucircumflex" unicode="&#xfb;" horiz-adv-x="544" 
d="M527 521l-103 -521h-119l9 50c-34 -35 -83 -56 -137 -56c-61 0 -133 41 -133 145c0 21 3 40 6 57l65 325h124l-63 -317c-2 -11 -4 -24 -4 -34c0 -45 31 -65 62 -65c35 0 90 18 106 100l63 316h124zM508 604h-92l-59 94l-99 -94h-101l159 169h100z" />
    <glyph glyph-name="udieresis" unicode="&#xfc;" horiz-adv-x="544" 
d="M527 521l-103 -521h-119l9 50c-34 -35 -83 -56 -137 -56c-61 0 -133 41 -133 145c0 21 3 40 6 57l65 325h124l-63 -317c-2 -11 -4 -24 -4 -34c0 -45 31 -65 62 -65c35 0 90 18 106 100l63 316h124zM517 725l-24 -122h-106l24 122h106zM307 725l-24 -122h-105l24 122h105z
" />
    <glyph glyph-name="degree" unicode="&#xb0;" horiz-adv-x="460" 
d="M465 542c0 -102 -76 -178 -178 -178s-178 76 -178 178s76 179 178 179s178 -77 178 -179zM366 542c0 45 -35 80 -79 80s-79 -35 -79 -80s35 -80 79 -80s79 35 79 80z" />
    <glyph glyph-name="registered" unicode="&#xae;" horiz-adv-x="801" 
d="M764 356c0 -190 -154 -344 -344 -344s-344 154 -344 344s154 344 344 344s344 -154 344 -344zM682 356c0 153 -114 267 -262 267s-262 -114 -262 -267s114 -267 262 -267s262 114 262 267zM575 173h-93l-66 141h-39v-141h-82v366h149c75 0 121 -54 121 -115
c0 -51 -31 -83 -66 -97zM484 424c0 26 -21 48 -51 48h-56v-94h56c30 0 51 20 51 46z" />
    <glyph glyph-name="copyright" unicode="&#xa9;" horiz-adv-x="801" 
d="M764 356c0 -190 -154 -344 -344 -344s-344 154 -344 344s154 344 344 344s344 -154 344 -344zM682 356c0 153 -115 267 -262 267s-261 -114 -261 -267s114 -267 261 -267s262 114 262 267zM552 219c-35 -31 -71 -49 -124 -49c-95 0 -171 64 -171 186s76 186 171 186
c53 0 88 -18 124 -49l-53 -53c-26 22 -42 30 -71 30c-59 0 -91 -44 -91 -114s32 -114 91 -114c29 0 45 8 71 30z" />
    <glyph glyph-name="trademark" unicode="&#x2122;" horiz-adv-x="878" 
d="M909 712l-84 -427h-92l51 253l-106 -153h-79l-46 155l-52 -255h-90l84 427h89l70 -228l163 228h92zM431 712l-15 -81h-103l-70 -346h-89l69 346h-106l16 81h298z" />
    <glyph glyph-name="plusminus" unicode="&#xb1;" 
d="M508 451l-23 -114h-153l-33 -165h-116l33 165h-152l23 114h152l33 164h116l-33 -164h153zM442 115l-23 -115h-421l23 115h421z" />
    <glyph glyph-name="mu" unicode="&#xb5;" horiz-adv-x="548" 
d="M531 521l-104 -521h-119l10 50c-34 -35 -83 -56 -137 -56c-16 0 -30 5 -40 15l-40 -200h-124l142 712h124l-64 -317c-2 -11 -3 -24 -3 -34c0 -45 30 -65 61 -65c35 0 91 18 107 100l63 316h124z" />
    <glyph glyph-name="logicalnot" unicode="&#xac;" 
d="M493 359l-53 -264h-115l30 149h-313l23 115h428z" />
    <glyph glyph-name="nbspace" unicode="&#xa0;" horiz-adv-x="220" 
 />
    <glyph glyph-name="Agrave" unicode="&#xc0;" horiz-adv-x="607" 
d="M552 0h-134l-15 130h-241l-67 -130h-141l388 712h105zM393 238l-34 274l-143 -274h177zM432 778h-79l-74 167h128z" />
    <glyph glyph-name="Atilde" unicode="&#xc3;" horiz-adv-x="607" 
d="M552 0h-134l-15 130h-241l-67 -130h-141l388 712h105zM393 238l-34 274l-143 -274h177zM570 846c-37 -35 -68 -52 -111 -52c-35 0 -57 10 -77 22s-33 18 -53 18c-25 0 -44 -13 -62 -31l-45 59c36 35 68 52 111 52c34 0 57 -10 77 -22s33 -17 53 -17c25 0 44 13 62 31z
" />
    <glyph glyph-name="Otilde" unicode="&#xd5;" horiz-adv-x="611" 
d="M597 516c0 -32 -6 -80 -22 -160c-27 -137 -46 -218 -109 -281c-53 -53 -130 -81 -199 -81c-135 0 -214 92 -214 202c0 32 7 80 22 160c27 137 46 218 109 281c53 53 129 81 198 81c135 0 215 -92 215 -202zM463 506c0 63 -42 96 -90 96c-38 0 -72 -16 -97 -43
c-27 -29 -43 -71 -69 -203c-12 -61 -21 -115 -21 -150c0 -63 43 -96 91 -96c38 0 72 16 97 43c27 29 43 71 69 203c12 61 20 115 20 150zM575 846c-37 -35 -68 -52 -111 -52c-35 0 -57 10 -77 22s-33 18 -53 18c-25 0 -44 -13 -62 -31l-45 59c36 35 68 52 111 52
c34 0 57 -10 77 -22s33 -17 53 -17c25 0 43 13 62 31z" />
    <glyph glyph-name="divide" unicode="&#xf7;" 
d="M376 543l-25 -124h-124l25 124h124zM490 343l-23 -115h-429l23 115h429zM301 153l-24 -124h-124l25 124h123z" />
    <glyph glyph-name="ydieresis" unicode="&#xff;" horiz-adv-x="464" 
d="M515 521l-325 -605c-12 -23 -27 -45 -43 -61c-33 -33 -72 -46 -124 -46h-48l23 112h28c36 0 52 17 71 54l33 62l-74 484h123l38 -336l167 336h131zM483 725l-24 -122h-106l24 122h106zM273 725l-24 -122h-105l24 122h105z" />
    <glyph glyph-name="Ydieresis" unicode="&#x178;" horiz-adv-x="550" 
d="M635 712l-286 -425l-58 -287h-132l59 292l-129 420h140l76 -295l184 295h146zM546 902l-24 -122h-106l24 122h106zM336 902l-24 -122h-105l24 122h105z" />
    <glyph glyph-name="Acircumflex" unicode="&#xc2;" horiz-adv-x="607" 
d="M552 0h-134l-15 130h-241l-67 -130h-141l388 712h105zM393 238l-34 274l-143 -274h177zM569 781h-92l-59 94l-99 -94h-101l159 169h100z" />
    <glyph glyph-name="Ecircumflex" unicode="&#xca;" horiz-adv-x="578" 
d="M615 712l-23 -116h-312l-36 -179h269l-23 -116h-269l-37 -185h318l-23 -116h-451l143 712h444zM559 781h-92l-59 94l-99 -94h-101l159 169h100z" />
    <glyph glyph-name="Aacute" unicode="&#xc1;" horiz-adv-x="607" 
d="M552 0h-134l-15 130h-241l-67 -130h-141l388 712h105zM393 238l-34 274l-143 -274h177zM555 945l-139 -167h-84l92 167h131z" />
    <glyph glyph-name="Edieresis" unicode="&#xcb;" horiz-adv-x="578" 
d="M615 712l-23 -116h-312l-36 -179h269l-23 -116h-269l-37 -185h318l-23 -116h-451l143 712h444zM566 902l-24 -122h-106l24 122h106zM356 902l-24 -122h-105l24 122h105z" />
    <glyph glyph-name="Egrave" unicode="&#xc8;" horiz-adv-x="578" 
d="M615 712l-23 -116h-312l-36 -179h269l-23 -116h-269l-37 -185h318l-23 -116h-451l143 712h444zM429 778h-79l-74 167h128z" />
    <glyph glyph-name="Iacute" unicode="&#xcd;" horiz-adv-x="290" 
d="M303 712l-143 -712h-132l143 712h132zM402 945l-139 -167h-84l92 167h131z" />
    <glyph glyph-name="Icircumflex" unicode="&#xce;" horiz-adv-x="290" 
d="M303 712l-143 -712h-132l143 712h132zM415 781h-92l-59 94l-99 -94h-101l159 169h100z" />
    <glyph glyph-name="Idieresis" unicode="&#xcf;" horiz-adv-x="290" 
d="M303 712l-143 -712h-132l143 712h132zM428 902l-24 -122h-106l24 122h106zM218 902l-24 -122h-105l24 122h105z" />
    <glyph glyph-name="Igrave" unicode="&#xcc;" horiz-adv-x="290" 
d="M303 712l-143 -712h-132l143 712h132zM289 778h-79l-74 167h128z" />
    <glyph glyph-name="Oacute" unicode="&#xd3;" horiz-adv-x="611" 
d="M597 516c0 -32 -6 -80 -22 -160c-27 -137 -46 -218 -109 -281c-53 -53 -130 -81 -199 -81c-135 0 -214 92 -214 202c0 32 7 80 22 160c27 137 46 218 109 281c53 53 129 81 198 81c135 0 215 -92 215 -202zM463 506c0 63 -42 96 -90 96c-38 0 -72 -16 -97 -43
c-27 -29 -43 -71 -69 -203c-12 -61 -21 -115 -21 -150c0 -63 43 -96 91 -96c38 0 72 16 97 43c27 29 43 71 69 203c12 61 20 115 20 150zM560 945l-139 -167h-84l92 167h131z" />
    <glyph glyph-name="Ocircumflex" unicode="&#xd4;" horiz-adv-x="611" 
d="M597 516c0 -32 -6 -80 -22 -160c-27 -137 -46 -218 -109 -281c-53 -53 -130 -81 -199 -81c-135 0 -214 92 -214 202c0 32 7 80 22 160c27 137 46 218 109 281c53 53 129 81 198 81c135 0 215 -92 215 -202zM463 506c0 63 -42 96 -90 96c-38 0 -72 -16 -97 -43
c-27 -29 -43 -71 -69 -203c-12 -61 -21 -115 -21 -150c0 -63 43 -96 91 -96c38 0 72 16 97 43c27 29 43 71 69 203c12 61 20 115 20 150zM569 781h-92l-59 94l-99 -94h-101l159 169h100z" />
    <glyph glyph-name="Ograve" unicode="&#xd2;" horiz-adv-x="611" 
d="M597 516c0 -32 -6 -80 -22 -160c-27 -137 -46 -218 -109 -281c-53 -53 -130 -81 -199 -81c-135 0 -214 92 -214 202c0 32 7 80 22 160c27 137 46 218 109 281c53 53 129 81 198 81c135 0 215 -92 215 -202zM463 506c0 63 -42 96 -90 96c-38 0 -72 -16 -97 -43
c-27 -29 -43 -71 -69 -203c-12 -61 -21 -115 -21 -150c0 -63 43 -96 91 -96c38 0 72 16 97 43c27 29 43 71 69 203c12 61 20 115 20 150zM438 778h-79l-74 167h128z" />
    <glyph glyph-name="Uacute" unicode="&#xda;" horiz-adv-x="635" 
d="M658 712l-94 -468c-35 -175 -153 -250 -285 -250c-121 0 -217 77 -217 203c0 19 4 46 7 61l91 454h132l-93 -462c-2 -12 -5 -29 -5 -44c0 -49 27 -95 94 -95c76 0 128 52 147 146l91 455h132zM578 945l-139 -167h-84l92 167h131z" />
    <glyph glyph-name="Ucircumflex" unicode="&#xdb;" horiz-adv-x="635" 
d="M658 712l-94 -468c-35 -175 -153 -250 -285 -250c-121 0 -217 77 -217 203c0 19 4 46 7 61l91 454h132l-93 -462c-2 -12 -5 -29 -5 -44c0 -49 27 -95 94 -95c76 0 128 52 147 146l91 455h132zM588 781h-92l-59 94l-99 -94h-101l159 169h100z" />
    <glyph glyph-name="Ugrave" unicode="&#xd9;" horiz-adv-x="635" 
d="M658 712l-94 -468c-35 -175 -153 -250 -285 -250c-121 0 -217 77 -217 203c0 19 4 46 7 61l91 454h132l-93 -462c-2 -12 -5 -29 -5 -44c0 -49 27 -95 94 -95c76 0 128 52 147 146l91 455h132zM456 778h-79l-74 167h128z" />
    <glyph glyph-name="Eth" unicode="&#xd0;" horiz-adv-x="648" 
d="M636 513c0 -31 -5 -63 -23 -154c-34 -174 -53 -230 -114 -289c-48 -46 -115 -70 -196 -70h-253l62 310h-66l20 100h66l61 302h233c118 0 210 -61 210 -199zM503 502c0 64 -39 94 -100 94h-101l-38 -186h110l-20 -100h-110l-39 -194h100c42 0 78 12 106 39
c29 28 44 69 70 204c16 82 22 120 22 143z" />
    <glyph glyph-name="eurocurrency" horiz-adv-x="469" 
d="M404 334c0 -90 -64 -154 -154 -154s-154 64 -154 154s64 154 154 154s154 -64 154 -154z" />
    <glyph glyph-name="Euro" unicode="&#x20ac;" horiz-adv-x="650" 
d="M642 498h-132c-1 58 -28 104 -92 104c-41 0 -69 -14 -96 -41c-18 -18 -31 -43 -43 -88h142l-16 -78h-146l-15 -75h147l-14 -78h-144c-2 -14 -2 -26 -2 -36c0 -61 40 -96 94 -96c63 0 110 45 133 104h136c-45 -137 -143 -220 -279 -220c-135 0 -218 89 -218 202
c0 16 2 29 5 46h-69l14 78h66l15 75h-66l14 78h69c18 70 39 121 82 164c57 57 131 81 199 81c146 0 216 -96 216 -220z" />
    </font>
</defs>
</svg>
